G04 PROTEUS GERBER X2 FILE*
%TF.GenerationSoftware,Labcenter,Proteus,8.10-SP3-Build29560*%
%TF.CreationDate,2022-04-06T16:06:30+00:00*%
%TF.FileFunction,Plated,1,2,PTH*%
%TF.FilePolarity,Positive*%
%TF.Part,Single*%
%TF.SameCoordinates,{9280a720-8dd3-4385-b9d9-bf93217f49df}*%
%FSLAX45Y45*%
%MOMM*%
G01*
%TA.AperFunction,ComponentDrill*%
%ADD36C,1.000000*%
%TA.AperFunction,ComponentDrill*%
%ADD37C,0.762000*%
%TA.AperFunction,ComponentDrill*%
%ADD38C,1.016000*%
%TA.AperFunction,ComponentDrill*%
%ADD39C,1.524000*%
%TA.AperFunction,ComponentDrill*%
%ADD40C,0.889000*%
%TD.AperFunction*%
D36*
X-10250000Y+6250000D03*
X-10250000Y+6504000D03*
X-10250000Y+6758000D03*
X-10250000Y+7012000D03*
X-10250000Y+7266000D03*
X-10250000Y+7520000D03*
X-10250000Y+7774000D03*
X-10250000Y+8028000D03*
X-10250000Y+8282000D03*
X-10250000Y+8536000D03*
X-10250000Y+8790000D03*
X-10250000Y+9044000D03*
X-10250000Y+9298000D03*
X-10250000Y+9552000D03*
X-10250000Y+9806000D03*
X-11774000Y+9806000D03*
X-11774000Y+9552000D03*
X-11774000Y+9298000D03*
X-11774000Y+9044000D03*
X-11774000Y+8790000D03*
X-11774000Y+8536000D03*
X-11774000Y+8282000D03*
X-11774000Y+8028000D03*
X-11774000Y+7774000D03*
X-11774000Y+7520000D03*
X-11774000Y+7266000D03*
X-11774000Y+7012000D03*
X-11774000Y+6758000D03*
X-11774000Y+6504000D03*
X-11774000Y+6250000D03*
X-9250000Y+8500000D03*
X-9250000Y+8754000D03*
X-9250000Y+9008000D03*
X-9250000Y+9262000D03*
X-9250000Y+9516000D03*
X-9250000Y+9770000D03*
D37*
X-9750000Y+6250000D03*
X-9750000Y+7266000D03*
D38*
X-8771000Y+6746000D03*
X-8771000Y+7000000D03*
X-8771000Y+7254000D03*
X-8771000Y+7508000D03*
D39*
X-6250000Y+4500000D03*
X-5742000Y+4500000D03*
X-11500000Y+4500000D03*
X-10992000Y+4500000D03*
X-8000000Y+4500000D03*
X-8508000Y+4500000D03*
X-9234000Y+4500000D03*
X-9742000Y+4500000D03*
X-10250000Y+4500000D03*
D38*
X-8021000Y+7246000D03*
X-8021000Y+7500000D03*
D40*
X-6500000Y+6000000D03*
X-6754000Y+6127000D03*
X-6500000Y+6254000D03*
X-6754000Y+6381000D03*
X-6500000Y+6508000D03*
X-6754000Y+6635000D03*
X-6500000Y+6762000D03*
X-6754000Y+6889000D03*
M02*
