G04 PROTEUS GERBER X2 FILE*
%TF.GenerationSoftware,Labcenter,Proteus,8.10-SP3-Build29560*%
%TF.CreationDate,2022-04-01T22:25:54+00:00*%
%TF.FileFunction,Copper,L1,Bot*%
%TF.FilePolarity,Positive*%
%TF.Part,Single*%
%TF.SameCoordinates,{d6a88fbf-1cde-4ff9-8d92-a6d7fee4950a}*%
%FSLAX45Y45*%
%MOMM*%
G01*
%TA.AperFunction,Conductor*%
%ADD10C,1.016000*%
%ADD11C,1.524000*%
%TA.AperFunction,NonConductor*%
%ADD12C,1.016000*%
%AMDIL003*
4,1,8,
-1.270000,0.457200,-0.965200,0.762000,0.965200,0.762000,1.270000,0.457200,1.270000,-0.457200,
0.965200,-0.762000,-0.965200,-0.762000,-1.270000,-0.457200,-1.270000,0.457200,
0*%
%TA.AperFunction,ComponentPad*%
%ADD13DIL003*%
%TA.AperFunction,ComponentPad*%
%ADD14C,1.778000*%
%TA.AperFunction,ComponentPad*%
%ADD15R,2.032000X2.032000*%
%TA.AperFunction,ComponentPad*%
%ADD16C,3.048000*%
%TA.AperFunction,ComponentPad*%
%ADD17C,1.397000*%
%TA.AperFunction,OtherPad,Unknown*%
%ADD18R,2.286000X2.286000*%
%TA.AperFunction,Profile*%
%ADD19C,0.203200*%
%TD.AperFunction*%
D10*
X-9750000Y+6250000D02*
X-9750000Y+6858000D01*
X-9904000Y+7012000D01*
X-10250000Y+7012000D01*
X-9750000Y+7266000D02*
X-10250000Y+7266000D01*
X-8771000Y+7508000D02*
X-8029000Y+7508000D01*
X-8021000Y+7500000D01*
D11*
X-9500000Y+5500000D02*
X-9250000Y+5500000D01*
X-9000000Y+5500000D01*
X-9000000Y+5651500D01*
X-9000000Y+6000000D01*
X-9500000Y+5500000D02*
X-10250000Y+5500000D01*
X-10250000Y+4500000D01*
D10*
X-9750000Y+4492000D02*
X-9742000Y+4500000D01*
D11*
X-6250000Y+4500000D02*
X-6250000Y+4000000D01*
X-9247003Y+4000000D01*
X-9247003Y+4486997D01*
X-9234000Y+4500000D01*
X-5742000Y+4500000D02*
X-5742000Y+3810456D01*
X-5802456Y+3750000D01*
X-9750000Y+3750000D01*
D12*
X-11774000Y+9552000D02*
X-12147517Y+9552000D01*
X-12161890Y+9566373D01*
X-12161890Y+10503431D01*
X-7003431Y+10503431D01*
X-6750000Y+10250000D01*
X-6750000Y+6895563D01*
X-6745793Y+6891356D01*
D10*
X-8021000Y+7246000D02*
X-8021000Y+7271000D01*
X-8000000Y+7250000D01*
X-7500000Y+7250000D01*
X-8250000Y+6750000D02*
X-8767000Y+6750000D01*
X-8771000Y+6746000D01*
X-10250000Y+8282000D02*
X-9894868Y+8282000D01*
X-9880735Y+8267867D01*
X-8866868Y+7254000D01*
X-8771000Y+7254000D01*
X-10250000Y+8028000D02*
X-9935022Y+8028000D01*
X-9932095Y+8025073D01*
X-8909559Y+7002537D01*
X-8890883Y+7002537D01*
X-8773537Y+7002537D01*
X-8771000Y+7000000D01*
X-9750000Y+7266000D02*
X-8865000Y+6381000D01*
X-6754000Y+6381000D01*
D11*
X-9750000Y+4492000D02*
X-9750000Y+3750000D01*
X-10500000Y+3750000D01*
D10*
X-10250000Y+8536000D02*
X-10750000Y+8536000D01*
X-10750000Y+5750000D01*
X-11000000Y+5500000D01*
X-10992000Y+4500000D01*
X-11500000Y+4500000D02*
X-11500000Y+5500000D01*
X-11000000Y+6000000D01*
X-11000000Y+8790000D01*
X-10250000Y+8790000D01*
X-11774000Y+6504000D02*
X-11239500Y+6504000D01*
X-11250000Y+6514500D01*
X-11250000Y+10000000D01*
X-9250000Y+10000000D01*
X-9250000Y+9770000D01*
X-11774000Y+9806000D02*
X-11774000Y+10223500D01*
X-11747500Y+10250000D01*
X-8500000Y+10250000D01*
X-8250000Y+10166667D01*
X-8250000Y+8836000D01*
X-8500000Y+8754000D01*
X-9250000Y+8754000D01*
X-7000000Y+4750000D02*
X-7000000Y+5000000D01*
X-5750000Y+5000000D01*
X-5750000Y+4508000D01*
X-5742000Y+4500000D01*
X-8750000Y+9516000D02*
X-9250000Y+9516000D01*
X-9750000Y+6250000D02*
X-10152131Y+5847869D01*
X-10430695Y+5847869D01*
X-10629478Y+5649086D01*
X-10629478Y+3750000D01*
D11*
X-10500000Y+3750000D02*
X-10629478Y+3750000D01*
X-12250000Y+3750000D01*
X-12250000Y+6500000D01*
X-11783662Y+6494338D01*
X-11774000Y+6504000D01*
D12*
X-11774000Y+6250000D02*
X-11774000Y+5774000D01*
X-11750000Y+5750000D01*
D10*
X-8000000Y+4500000D02*
X-7250000Y+5250000D01*
X-6000001Y+5250000D01*
X-5500000Y+5750001D01*
X-5500000Y+6493954D01*
X-6499748Y+6507748D01*
X-6500000Y+6508000D01*
X-9742000Y+4500000D02*
X-9750000Y+5000000D01*
X-8750000Y+5000000D01*
X-8500000Y+5750000D01*
X-6500000Y+5750000D01*
X-6500000Y+6000000D01*
X-6754000Y+6127000D02*
X-7159293Y+6019671D01*
X-8980329Y+6019671D01*
X-9000000Y+6000000D01*
X-6500000Y+6762000D02*
X-6250000Y+7012000D01*
X-6250000Y+10227500D01*
X-6772500Y+10750000D01*
X-12500000Y+10750000D01*
X-12500000Y+9044000D01*
X-11774000Y+9044000D01*
X-10250000Y+9298000D02*
X-9968158Y+9298000D01*
X-9517832Y+8847674D01*
X-9517832Y+8839225D01*
X-9517832Y+8517832D01*
X-9500000Y+8500000D01*
X-9250000Y+8500000D01*
X-10250000Y+9044000D02*
X-10035905Y+9044000D01*
X-10000000Y+9008095D01*
X-9760038Y+8768133D01*
X-9760038Y+8490710D01*
X-9141029Y+7821842D01*
X-7343716Y+7821842D01*
X-7179616Y+7657742D01*
X-7179616Y+6645784D01*
X-7189129Y+6636271D01*
X-6755271Y+6636271D01*
X-6754000Y+6635000D01*
X-9250000Y+9008000D02*
X-9491116Y+9008000D01*
X-9499231Y+9016115D01*
X-9759277Y+9276161D01*
X-9759277Y+9551329D01*
X-10249329Y+9551329D01*
X-10250000Y+9552000D01*
X-10250000Y+9806000D02*
X-9536575Y+9806000D01*
X-9528340Y+9797765D01*
X-9528340Y+9278340D01*
X-9488000Y+9262000D01*
X-9250000Y+9262000D01*
X-6500000Y+6254000D02*
X-6489416Y+6243416D01*
X-6250000Y+6243416D01*
X-6250000Y+5689084D01*
X-6418861Y+5520223D01*
X-7867013Y+5520223D01*
X-8510833Y+4876403D01*
X-8510833Y+4502833D01*
X-8508000Y+4500000D01*
D13*
X-10250000Y+6250000D03*
X-10250000Y+6504000D03*
X-10250000Y+6758000D03*
X-10250000Y+7012000D03*
X-10250000Y+7266000D03*
X-10250000Y+7520000D03*
X-10250000Y+7774000D03*
X-10250000Y+8028000D03*
X-10250000Y+8282000D03*
X-10250000Y+8536000D03*
X-10250000Y+8790000D03*
X-10250000Y+9044000D03*
X-10250000Y+9298000D03*
X-10250000Y+9552000D03*
X-10250000Y+9806000D03*
X-11774000Y+9806000D03*
X-11774000Y+9552000D03*
X-11774000Y+9298000D03*
X-11774000Y+9044000D03*
X-11774000Y+8790000D03*
X-11774000Y+8536000D03*
X-11774000Y+8282000D03*
X-11774000Y+8028000D03*
X-11774000Y+7774000D03*
X-11774000Y+7520000D03*
X-11774000Y+7266000D03*
X-11774000Y+7012000D03*
X-11774000Y+6758000D03*
X-11774000Y+6504000D03*
X-11774000Y+6250000D03*
X-9250000Y+8500000D03*
X-9250000Y+8754000D03*
X-9250000Y+9008000D03*
X-9250000Y+9262000D03*
X-9250000Y+9516000D03*
X-9250000Y+9770000D03*
D14*
X-9750000Y+6250000D03*
X-9750000Y+7266000D03*
D15*
X-8771000Y+6746000D03*
X-8771000Y+7000000D03*
X-8771000Y+7254000D03*
X-8771000Y+7508000D03*
D16*
X-6250000Y+4500000D03*
X-5742000Y+4500000D03*
X-11500000Y+4500000D03*
X-10992000Y+4500000D03*
X-8000000Y+4500000D03*
X-8508000Y+4500000D03*
X-9234000Y+4500000D03*
X-9742000Y+4500000D03*
X-10250000Y+4500000D03*
D15*
X-8021000Y+7246000D03*
X-8021000Y+7500000D03*
D17*
X-6500000Y+6000000D03*
X-6754000Y+6127000D03*
X-6500000Y+6254000D03*
X-6754000Y+6381000D03*
X-6500000Y+6508000D03*
X-6754000Y+6635000D03*
X-6500000Y+6762000D03*
X-6754000Y+6889000D03*
D18*
X-11750000Y+5750000D03*
D15*
X-9500000Y+5500000D03*
X-8750000Y+9516000D03*
X-9000000Y+5500000D03*
X-9000000Y+6000000D03*
X-7500000Y+7250000D03*
X-7000000Y+4750000D03*
X-8250000Y+6750000D03*
D19*
X-12750000Y+3500000D02*
X-5250000Y+3500000D01*
X-5250000Y+11000000D01*
X-12750000Y+11000000D01*
X-12750000Y+3500000D01*
M02*
