G04 PROTEUS GERBER X2 FILE*
%TF.GenerationSoftware,Labcenter,Proteus,8.10-SP3-Build29560*%
%TF.CreationDate,2022-02-24T20:56:41+00:00*%
%TF.FileFunction,Copper,L1,Top*%
%TF.FilePolarity,Positive*%
%TF.Part,Single*%
%TF.SameCoordinates,{e0c8fd6e-37dc-4a7a-b3f3-70e9e95a6a86}*%
%FSLAX45Y45*%
%MOMM*%
G01*
%AMDIL000*
4,1,8,
-1.270000,0.457200,-0.965200,0.762000,0.965200,0.762000,1.270000,0.457200,1.270000,-0.457200,
0.965200,-0.762000,-0.965200,-0.762000,-1.270000,-0.457200,-1.270000,0.457200,
0*%
%TA.AperFunction,ComponentPad*%
%ADD10DIL000*%
%AMDIL001*
4,1,8,
-0.762000,0.965200,-0.457200,1.270000,0.457200,1.270000,0.762000,0.965200,0.762000,-0.965200,
0.457200,-1.270000,-0.457200,-1.270000,-0.762000,-0.965200,-0.762000,0.965200,
0*%
%TA.AperFunction,ComponentPad*%
%ADD11DIL001*%
%TA.AperFunction,ComponentPad*%
%ADD12C,3.048000*%
%ADD13C,1.778000*%
%TA.AperFunction,ComponentPad*%
%ADD14R,2.032000X2.032000*%
%TA.AperFunction,Profile*%
%ADD15C,0.203200*%
%TD.AperFunction*%
D10*
X-7750000Y+6250000D03*
X-7750000Y+6504000D03*
X-7750000Y+6758000D03*
X-7750000Y+7012000D03*
X-7750000Y+7266000D03*
X-7750000Y+7520000D03*
X-7750000Y+7774000D03*
X-7750000Y+8028000D03*
X-7750000Y+8282000D03*
X-7750000Y+8536000D03*
X-7750000Y+8790000D03*
X-7750000Y+9044000D03*
X-7750000Y+9298000D03*
X-7750000Y+9552000D03*
X-7750000Y+9806000D03*
X-9274000Y+9806000D03*
X-9274000Y+9552000D03*
X-9274000Y+9298000D03*
X-9274000Y+9044000D03*
X-9274000Y+8790000D03*
X-9274000Y+8536000D03*
X-9274000Y+8282000D03*
X-9274000Y+8028000D03*
X-9274000Y+7774000D03*
X-9274000Y+7520000D03*
X-9274000Y+7266000D03*
X-9274000Y+7012000D03*
X-9274000Y+6758000D03*
X-9274000Y+6504000D03*
X-9274000Y+6250000D03*
D11*
X-3500000Y+6500000D03*
X-3754000Y+6500000D03*
X-4008000Y+6500000D03*
X-4262000Y+6500000D03*
X-4516000Y+6500000D03*
X-4770000Y+6500000D03*
D12*
X-3000000Y+0D03*
X-3000000Y+508000D03*
X-7750000Y+3500000D03*
X-8258000Y+3500000D03*
X-5500000Y+3500000D03*
X-6008000Y+3500000D03*
X-6516000Y+3500000D03*
X-3258000Y-1750000D03*
X-2750000Y-1750000D03*
D13*
X-7000000Y+6500000D03*
X-7000000Y+7516000D03*
D14*
X-6250000Y+7512000D03*
X-6250000Y+7258000D03*
X-6250000Y+7004000D03*
X-6250000Y+6750000D03*
D10*
X-3000000Y+4278000D03*
X-3000000Y+4024000D03*
X-3000000Y+3770000D03*
X-3000000Y+3516000D03*
X-3000000Y+3262000D03*
X-3000000Y+3008000D03*
X-3000000Y+2754000D03*
X-3000000Y+2500000D03*
D12*
X-6500000Y+5000000D03*
X-5992000Y+5000000D03*
D15*
X-10500000Y-3000000D02*
X-1500000Y-3000000D01*
X-1500000Y+11500000D01*
X-10500000Y+11500000D01*
X-10500000Y-3000000D01*
M02*
