G04 PROTEUS GERBER X2 FILE*
%TF.GenerationSoftware,Labcenter,Proteus,8.10-SP3-Build29560*%
%TF.CreationDate,2022-03-23T18:48:53+00:00*%
%TF.FileFunction,Copper,L1,Top*%
%TF.FilePolarity,Positive*%
%TF.Part,Single*%
%TF.SameCoordinates,{eb7d761e-84b3-45e6-87e7-5047ee7461e7}*%
%FSLAX45Y45*%
%MOMM*%
G01*
%AMDIL000*
4,1,8,
-1.270000,0.457200,-0.965200,0.762000,0.965200,0.762000,1.270000,0.457200,1.270000,-0.457200,
0.965200,-0.762000,-0.965200,-0.762000,-1.270000,-0.457200,-1.270000,0.457200,
0*%
%TA.AperFunction,ComponentPad*%
%ADD10DIL000*%
%TA.AperFunction,ComponentPad*%
%ADD11C,1.778000*%
%TA.AperFunction,ComponentPad*%
%ADD12R,2.032000X2.032000*%
%TA.AperFunction,ComponentPad*%
%ADD13C,3.048000*%
%TA.AperFunction,ComponentPad*%
%ADD14C,1.397000*%
%TA.AperFunction,OtherPad,Unknown*%
%ADD15R,2.286000X2.286000*%
%TA.AperFunction,Profile*%
%ADD16C,0.203200*%
%TD.AperFunction*%
D10*
X-10250000Y+6250000D03*
X-10250000Y+6504000D03*
X-10250000Y+6758000D03*
X-10250000Y+7012000D03*
X-10250000Y+7266000D03*
X-10250000Y+7520000D03*
X-10250000Y+7774000D03*
X-10250000Y+8028000D03*
X-10250000Y+8282000D03*
X-10250000Y+8536000D03*
X-10250000Y+8790000D03*
X-10250000Y+9044000D03*
X-10250000Y+9298000D03*
X-10250000Y+9552000D03*
X-10250000Y+9806000D03*
X-11774000Y+9806000D03*
X-11774000Y+9552000D03*
X-11774000Y+9298000D03*
X-11774000Y+9044000D03*
X-11774000Y+8790000D03*
X-11774000Y+8536000D03*
X-11774000Y+8282000D03*
X-11774000Y+8028000D03*
X-11774000Y+7774000D03*
X-11774000Y+7520000D03*
X-11774000Y+7266000D03*
X-11774000Y+7012000D03*
X-11774000Y+6758000D03*
X-11774000Y+6504000D03*
X-11774000Y+6250000D03*
X-8750000Y+8500000D03*
X-8750000Y+8754000D03*
X-8750000Y+9008000D03*
X-8750000Y+9262000D03*
X-8750000Y+9516000D03*
X-8750000Y+9770000D03*
D11*
X-9750000Y+6250000D03*
X-9750000Y+7266000D03*
D12*
X-8771000Y+6746000D03*
X-8771000Y+7000000D03*
X-8771000Y+7254000D03*
X-8771000Y+7508000D03*
D13*
X-6250000Y+4500000D03*
X-5742000Y+4500000D03*
X-11500000Y+4500000D03*
X-10992000Y+4500000D03*
X-8000000Y+4500000D03*
X-8508000Y+4500000D03*
X-9234000Y+4500000D03*
X-9742000Y+4500000D03*
X-10250000Y+4500000D03*
D12*
X-8021000Y+7246000D03*
X-8021000Y+7500000D03*
D14*
X-6500000Y+6000000D03*
X-6754000Y+6127000D03*
X-6500000Y+6254000D03*
X-6754000Y+6381000D03*
X-6500000Y+6508000D03*
X-6754000Y+6635000D03*
X-6500000Y+6762000D03*
X-6754000Y+6889000D03*
D15*
X-11750000Y+5750000D03*
D12*
X-9500000Y+5500000D03*
X-8250000Y+9516000D03*
X-9000000Y+5500000D03*
X-9000000Y+6000000D03*
X-7500000Y+7250000D03*
X-6750000Y+4750000D03*
X-8250000Y+6750000D03*
D16*
X-12750000Y+3250000D02*
X-4750000Y+3250000D01*
X-4750000Y+11250000D01*
X-12750000Y+11250000D01*
X-12750000Y+3250000D01*
M02*
