G04 PROTEUS GERBER X2 FILE*
%TF.GenerationSoftware,Labcenter,Proteus,8.10-SP3-Build29560*%
%TF.CreationDate,2022-03-23T18:48:53+00:00*%
%TF.FileFunction,Plated,1,2,PTH*%
%TF.FilePolarity,Positive*%
%TF.Part,Single*%
%TF.SameCoordinates,{eb7d761e-84b3-45e6-87e7-5047ee7461e7}*%
%FSLAX45Y45*%
%MOMM*%
G01*
%TA.AperFunction,ComponentDrill*%
%ADD42C,1.000000*%
%TA.AperFunction,ComponentDrill*%
%ADD43C,0.762000*%
%TA.AperFunction,ComponentDrill*%
%ADD44C,1.016000*%
%TA.AperFunction,ComponentDrill*%
%ADD45C,1.524000*%
%TA.AperFunction,ComponentDrill*%
%ADD46C,0.889000*%
%TA.AperFunction,OtherDrill,Unknown*%
%ADD47C,1.270000*%
%TD.AperFunction*%
D42*
X-10250000Y+6250000D03*
X-10250000Y+6504000D03*
X-10250000Y+6758000D03*
X-10250000Y+7012000D03*
X-10250000Y+7266000D03*
X-10250000Y+7520000D03*
X-10250000Y+7774000D03*
X-10250000Y+8028000D03*
X-10250000Y+8282000D03*
X-10250000Y+8536000D03*
X-10250000Y+8790000D03*
X-10250000Y+9044000D03*
X-10250000Y+9298000D03*
X-10250000Y+9552000D03*
X-10250000Y+9806000D03*
X-11774000Y+9806000D03*
X-11774000Y+9552000D03*
X-11774000Y+9298000D03*
X-11774000Y+9044000D03*
X-11774000Y+8790000D03*
X-11774000Y+8536000D03*
X-11774000Y+8282000D03*
X-11774000Y+8028000D03*
X-11774000Y+7774000D03*
X-11774000Y+7520000D03*
X-11774000Y+7266000D03*
X-11774000Y+7012000D03*
X-11774000Y+6758000D03*
X-11774000Y+6504000D03*
X-11774000Y+6250000D03*
X-8750000Y+8500000D03*
X-8750000Y+8754000D03*
X-8750000Y+9008000D03*
X-8750000Y+9262000D03*
X-8750000Y+9516000D03*
X-8750000Y+9770000D03*
D43*
X-9750000Y+6250000D03*
X-9750000Y+7266000D03*
D44*
X-8771000Y+6746000D03*
X-8771000Y+7000000D03*
X-8771000Y+7254000D03*
X-8771000Y+7508000D03*
D45*
X-6250000Y+4500000D03*
X-5742000Y+4500000D03*
X-11500000Y+4500000D03*
X-10992000Y+4500000D03*
X-8000000Y+4500000D03*
X-8508000Y+4500000D03*
X-9234000Y+4500000D03*
X-9742000Y+4500000D03*
X-10250000Y+4500000D03*
D44*
X-8021000Y+7246000D03*
X-8021000Y+7500000D03*
D46*
X-6500000Y+6000000D03*
X-6754000Y+6127000D03*
X-6500000Y+6254000D03*
X-6754000Y+6381000D03*
X-6500000Y+6508000D03*
X-6754000Y+6635000D03*
X-6500000Y+6762000D03*
X-6754000Y+6889000D03*
D47*
X-11750000Y+5750000D03*
D44*
X-9500000Y+5500000D03*
X-8250000Y+9516000D03*
X-9000000Y+5500000D03*
X-9000000Y+6000000D03*
X-7500000Y+7250000D03*
X-6750000Y+4750000D03*
X-8250000Y+6750000D03*
M02*
