G04 PROTEUS GERBER X2 FILE*
%TF.GenerationSoftware,Labcenter,Proteus,8.10-SP3-Build29560*%
%TF.CreationDate,2022-03-23T18:48:53+00:00*%
%TF.FileFunction,AssemblyDrawing,Top*%
%TF.FilePolarity,Positive*%
%TF.Part,Single*%
%TF.SameCoordinates,{eb7d761e-84b3-45e6-87e7-5047ee7461e7}*%
%FSLAX45Y45*%
%MOMM*%
G01*
%TA.AperFunction,Profile*%
%ADD16C,0.203200*%
%TA.AperFunction,Material*%
%ADD20C,0.203200*%
%ADD28C,1.016000*%
%ADD29C,0.801370*%
%ADD72C,0.095430*%
%ADD73C,0.711200*%
%ADD30C,0.110230*%
%ADD31C,0.812800*%
%ADD32C,0.139700*%
%ADD33C,1.219200*%
%ADD34C,0.139330*%
%ADD35C,0.314280*%
%ADD36C,0.210740*%
%ADD37C,0.036680*%
%ADD38C,0.558800*%
%ADD39C,0.185490*%
%ADD40C,0.036280*%
%TD.AperFunction*%
D16*
X-12750000Y+3250000D02*
X-4750000Y+3250000D01*
X-4750000Y+11250000D01*
X-12750000Y+11250000D01*
X-12750000Y+3250000D01*
D20*
X-11901000Y+6112840D02*
X-10123000Y+6112840D01*
X-10123000Y+9943160D01*
X-11901000Y+9943160D01*
X-11901000Y+6112840D01*
D28*
X-10250000Y+6250000D02*
X-10250000Y+6250000D01*
D29*
X-10851726Y+6679514D02*
X-10771589Y+6769668D01*
X-10771589Y+7130284D01*
X-10851726Y+7220438D01*
X-10931863Y+7220438D01*
X-11012000Y+7130284D01*
X-11012000Y+6769668D01*
X-11092137Y+6679514D01*
X-11172274Y+6679514D01*
X-11252411Y+6769668D01*
X-11252411Y+7130284D01*
X-11172274Y+7220438D01*
X-11252411Y+7490901D02*
X-11252411Y+7851517D01*
X-11252411Y+7671209D02*
X-10771589Y+7671209D01*
X-10771589Y+7490901D02*
X-10771589Y+7851517D01*
X-10771589Y+8121980D02*
X-11252411Y+8121980D01*
X-11012000Y+8392442D01*
X-11252411Y+8662904D01*
X-10771589Y+8662904D01*
X-11092137Y+9023521D02*
X-11252411Y+9203829D01*
X-10771589Y+9203829D01*
D20*
X-8950660Y+8362840D02*
X-8549340Y+8362840D01*
X-8549340Y+9907160D01*
X-8950660Y+9907160D01*
X-8950660Y+8362840D01*
D28*
X-8750000Y+8500000D02*
X-8750000Y+8500000D01*
D72*
X-8730914Y+8627771D02*
X-8721371Y+8638506D01*
X-8721371Y+8681450D01*
X-8730914Y+8692186D01*
X-8740457Y+8692186D01*
X-8750000Y+8681450D01*
X-8750000Y+8638506D01*
X-8759543Y+8627771D01*
X-8769086Y+8627771D01*
X-8778629Y+8638506D01*
X-8778629Y+8681450D01*
X-8769086Y+8692186D01*
X-8721371Y+8713658D02*
X-8778629Y+8713658D01*
X-8778629Y+8756601D01*
X-8759543Y+8778073D01*
X-8740457Y+8778073D01*
X-8721371Y+8756601D01*
X-8721371Y+8713658D01*
X-8730914Y+8949847D02*
X-8721371Y+8939111D01*
X-8721371Y+8906903D01*
X-8740457Y+8885432D01*
X-8759543Y+8885432D01*
X-8778629Y+8906903D01*
X-8778629Y+8939111D01*
X-8769086Y+8949847D01*
X-8721371Y+8971319D02*
X-8759543Y+8971319D01*
X-8778629Y+8992790D01*
X-8778629Y+9014262D01*
X-8759543Y+9035734D01*
X-8721371Y+9035734D01*
X-8740457Y+8971319D02*
X-8740457Y+9035734D01*
X-8721371Y+9057206D02*
X-8778629Y+9057206D01*
X-8778629Y+9110885D01*
X-8769086Y+9121621D01*
X-8759543Y+9121621D01*
X-8750000Y+9110885D01*
X-8750000Y+9057206D01*
X-8750000Y+9110885D02*
X-8740457Y+9121621D01*
X-8721371Y+9121621D01*
X-8721371Y+9143093D02*
X-8778629Y+9143093D01*
X-8778629Y+9186036D01*
X-8759543Y+9207508D01*
X-8740457Y+9207508D01*
X-8721371Y+9186036D01*
X-8721371Y+9143093D01*
X-8721371Y+9314867D02*
X-8778629Y+9314867D01*
X-8778629Y+9368546D01*
X-8769086Y+9379282D01*
X-8759543Y+9379282D01*
X-8750000Y+9368546D01*
X-8750000Y+9314867D01*
X-8750000Y+9368546D02*
X-8740457Y+9379282D01*
X-8721371Y+9379282D01*
X-8721371Y+9465169D02*
X-8721371Y+9400754D01*
X-8778629Y+9400754D01*
X-8778629Y+9465169D01*
X-8750000Y+9400754D02*
X-8750000Y+9443697D01*
X-8721371Y+9486641D02*
X-8759543Y+9486641D01*
X-8778629Y+9508112D01*
X-8778629Y+9529584D01*
X-8759543Y+9551056D01*
X-8721371Y+9551056D01*
X-8740457Y+9486641D02*
X-8740457Y+9551056D01*
X-8721371Y+9572528D02*
X-8778629Y+9572528D01*
X-8778629Y+9615471D01*
X-8759543Y+9636943D01*
X-8740457Y+9636943D01*
X-8721371Y+9615471D01*
X-8721371Y+9572528D01*
X-8721371Y+9722830D02*
X-8721371Y+9658415D01*
X-8778629Y+9658415D01*
X-8778629Y+9722830D01*
X-8750000Y+9658415D02*
X-8750000Y+9701358D01*
X-8721371Y+9744302D02*
X-8778629Y+9744302D01*
X-8778629Y+9797981D01*
X-8769086Y+9808717D01*
X-8759543Y+9808717D01*
X-8750000Y+9797981D01*
X-8750000Y+9744302D01*
X-8750000Y+9797981D02*
X-8740457Y+9808717D01*
X-8721371Y+9808717D01*
D20*
X-9838900Y+6161100D02*
X-9661100Y+6161100D01*
X-9661100Y+7354900D01*
X-9838900Y+7354900D01*
X-9838900Y+6161100D01*
D73*
X-9750000Y+6250000D02*
X-9750000Y+6250000D01*
D30*
X-9716929Y+6721018D02*
X-9783070Y+6721018D01*
X-9783070Y+6783025D01*
X-9772047Y+6795427D01*
X-9761023Y+6795427D01*
X-9750000Y+6783025D01*
X-9750000Y+6721018D01*
X-9750000Y+6783025D02*
X-9738976Y+6795427D01*
X-9716929Y+6795427D01*
X-9761023Y+6845033D02*
X-9783070Y+6869836D01*
X-9716929Y+6869836D01*
D20*
X-8908160Y+6608840D02*
X-8633840Y+6608840D01*
X-8633840Y+7645160D01*
X-8908160Y+7645160D01*
X-8908160Y+6608840D01*
D31*
X-8771000Y+6746000D02*
X-8771000Y+6746000D01*
D32*
X-8729090Y+6838710D02*
X-8812910Y+6838710D01*
X-8812910Y+6933007D02*
X-8729090Y+6933007D01*
X-8771000Y+6838710D02*
X-8771000Y+6933007D01*
X-8743060Y+7058737D02*
X-8729090Y+7043021D01*
X-8729090Y+6995872D01*
X-8757030Y+6964440D01*
X-8784970Y+6964440D01*
X-8812910Y+6995872D01*
X-8812910Y+7043021D01*
X-8798940Y+7058737D01*
X-8743060Y+7090170D02*
X-8729090Y+7105886D01*
X-8729090Y+7168751D01*
X-8743060Y+7184467D01*
X-8757030Y+7184467D01*
X-8771000Y+7168751D01*
X-8771000Y+7105886D01*
X-8784970Y+7090170D01*
X-8798940Y+7090170D01*
X-8812910Y+7105886D01*
X-8812910Y+7168751D01*
X-8798940Y+7184467D01*
X-8729090Y+7215900D02*
X-8812910Y+7215900D01*
X-8812910Y+7294481D01*
X-8798940Y+7310197D01*
X-8784970Y+7310197D01*
X-8771000Y+7294481D01*
X-8771000Y+7215900D01*
X-8771000Y+7294481D02*
X-8757030Y+7310197D01*
X-8729090Y+7310197D01*
X-8784970Y+7341630D02*
X-8812910Y+7373062D01*
X-8812910Y+7404495D01*
X-8784970Y+7435927D01*
X-8757030Y+7435927D01*
X-8729090Y+7404495D01*
X-8729090Y+7373062D01*
X-8757030Y+7341630D01*
X-8784970Y+7341630D01*
X-8757030Y+7561657D02*
X-8757030Y+7467360D01*
X-8812910Y+7530225D01*
X-8729090Y+7530225D01*
D20*
X-6514160Y+3981840D02*
X-5477840Y+3981840D01*
X-5477840Y+5018160D01*
X-6514160Y+5018160D01*
X-6514160Y+3981840D01*
D33*
X-6250000Y+4500000D02*
X-6250000Y+4500000D01*
D34*
X-5791639Y+4061090D02*
X-5875241Y+4061090D01*
X-5875241Y+4139466D01*
X-5861307Y+4155142D01*
X-5847374Y+4155142D01*
X-5833440Y+4139466D01*
X-5833440Y+4061090D01*
X-5847374Y+4186493D02*
X-5875241Y+4217843D01*
X-5875241Y+4249194D01*
X-5847374Y+4280545D01*
X-5819506Y+4280545D01*
X-5791639Y+4249194D01*
X-5791639Y+4217843D01*
X-5819506Y+4186493D01*
X-5847374Y+4186493D01*
X-5875241Y+4311896D02*
X-5791639Y+4311896D01*
X-5833440Y+4358922D01*
X-5791639Y+4405948D01*
X-5875241Y+4405948D01*
X-5791639Y+4531351D02*
X-5791639Y+4437299D01*
X-5875241Y+4437299D01*
X-5875241Y+4531351D01*
X-5833440Y+4437299D02*
X-5833440Y+4500000D01*
X-5791639Y+4562702D02*
X-5875241Y+4562702D01*
X-5875241Y+4641078D01*
X-5861307Y+4656754D01*
X-5847374Y+4656754D01*
X-5833440Y+4641078D01*
X-5833440Y+4562702D01*
X-5833440Y+4641078D02*
X-5819506Y+4656754D01*
X-5791639Y+4656754D01*
X-5791639Y+4813508D02*
X-5875241Y+4813508D01*
X-5791639Y+4907560D01*
X-5875241Y+4907560D01*
D20*
X-11764160Y+3981840D02*
X-10727840Y+3981840D01*
X-10727840Y+5018160D01*
X-11764160Y+5018160D01*
X-11764160Y+3981840D01*
D33*
X-11500000Y+4500000D02*
X-11500000Y+4500000D01*
D35*
X-10989155Y+4075721D02*
X-11177724Y+4075721D01*
X-11177724Y+4252504D01*
X-11146296Y+4287860D01*
X-11114868Y+4287860D01*
X-11083440Y+4252504D01*
X-11083440Y+4075721D01*
X-11177724Y+4358574D02*
X-10989155Y+4358574D01*
X-11083440Y+4464643D01*
X-10989155Y+4570713D01*
X-11177724Y+4570713D01*
X-10989155Y+4641427D02*
X-11177724Y+4641427D01*
X-11083440Y+4747496D01*
X-11177724Y+4853566D01*
X-10989155Y+4853566D01*
D20*
X-8772160Y+3981840D02*
X-7735840Y+3981840D01*
X-7735840Y+5018160D01*
X-8772160Y+5018160D01*
X-8772160Y+3981840D01*
D33*
X-8000000Y+4500000D02*
X-8000000Y+4500000D01*
D35*
X-8447988Y+4075721D02*
X-8510844Y+4146434D01*
X-8510844Y+4217147D01*
X-8447988Y+4287860D01*
X-8385131Y+4287860D01*
X-8322275Y+4217147D01*
X-8322275Y+4146434D01*
X-8385131Y+4075721D01*
X-8447988Y+4075721D01*
X-8510844Y+4358574D02*
X-8353703Y+4358574D01*
X-8322275Y+4393930D01*
X-8322275Y+4535357D01*
X-8353703Y+4570713D01*
X-8510844Y+4570713D01*
X-8510844Y+4641427D02*
X-8510844Y+4853566D01*
X-8510844Y+4747496D02*
X-8322275Y+4747496D01*
D20*
X-10514160Y+3981840D02*
X-8969840Y+3981840D01*
X-8969840Y+5018160D01*
X-10514160Y+5018160D01*
X-10514160Y+3981840D01*
D33*
X-9234000Y+4500000D02*
X-9234000Y+4500000D01*
D36*
X-10378740Y+4436776D02*
X-10378740Y+4563224D01*
X-10260195Y+4563224D01*
X-10236486Y+4542149D01*
X-10236486Y+4521075D01*
X-10260195Y+4500000D01*
X-10378740Y+4500000D01*
X-10189068Y+4521075D02*
X-10141650Y+4563224D01*
X-10094232Y+4563224D01*
X-10046814Y+4521075D01*
X-10046814Y+4478925D01*
X-10094232Y+4436776D01*
X-10141650Y+4436776D01*
X-10189068Y+4478925D01*
X-10189068Y+4521075D01*
X-9999396Y+4563224D02*
X-9999396Y+4436776D01*
X-9928269Y+4500000D01*
X-9857142Y+4436776D01*
X-9857142Y+4563224D01*
X-9667470Y+4436776D02*
X-9809724Y+4436776D01*
X-9809724Y+4563224D01*
X-9667470Y+4563224D01*
X-9809724Y+4500000D02*
X-9714888Y+4500000D01*
X-9620052Y+4436776D02*
X-9620052Y+4563224D01*
X-9501507Y+4563224D01*
X-9477798Y+4542149D01*
X-9477798Y+4521075D01*
X-9501507Y+4500000D01*
X-9620052Y+4500000D01*
X-9501507Y+4500000D02*
X-9477798Y+4478925D01*
X-9477798Y+4436776D01*
D20*
X-8158160Y+7108840D02*
X-7883840Y+7108840D01*
X-7883840Y+7637160D01*
X-8158160Y+7637160D01*
X-8158160Y+7108840D01*
D31*
X-8021000Y+7246000D02*
X-8021000Y+7246000D01*
D37*
X-8009993Y+7313315D02*
X-8032006Y+7313315D01*
X-8032006Y+7338079D02*
X-8009993Y+7338079D01*
X-8021000Y+7313315D02*
X-8021000Y+7338079D01*
X-8013662Y+7371098D02*
X-8009993Y+7366970D01*
X-8009993Y+7354588D01*
X-8017331Y+7346334D01*
X-8024668Y+7346334D01*
X-8032006Y+7354588D01*
X-8032006Y+7366970D01*
X-8028337Y+7371098D01*
X-8024668Y+7412372D02*
X-8032006Y+7420626D01*
X-8032006Y+7428881D01*
X-8024668Y+7437136D01*
X-8017331Y+7437136D01*
X-8009993Y+7428881D01*
X-8009993Y+7420626D01*
X-8017331Y+7412372D01*
X-8024668Y+7412372D01*
X-8009993Y+7445391D02*
X-8032006Y+7445391D01*
X-8009993Y+7470155D01*
X-8032006Y+7470155D01*
X-8024668Y+7511429D02*
X-8032006Y+7519683D01*
X-8032006Y+7527938D01*
X-8024668Y+7536193D01*
X-8017331Y+7536193D01*
X-8009993Y+7527938D01*
X-8009993Y+7519683D01*
X-8017331Y+7511429D01*
X-8024668Y+7511429D01*
X-8009993Y+7544448D02*
X-8032006Y+7544448D01*
X-8032006Y+7569212D01*
X-8021000Y+7544448D02*
X-8021000Y+7560957D01*
X-8009993Y+7577467D02*
X-8032006Y+7577467D01*
X-8032006Y+7602231D01*
X-8021000Y+7577467D02*
X-8021000Y+7593976D01*
D20*
X-6893700Y+5527560D02*
X-5207140Y+5527560D01*
X-5207140Y+7351280D01*
X-6893700Y+7351280D01*
X-6893700Y+5527560D01*
D38*
X-6500000Y+6000000D02*
X-6500000Y+6000000D01*
D39*
X-5895249Y+5688159D02*
X-5783951Y+5688159D01*
X-5895249Y+5813369D02*
X-5839600Y+5750764D01*
X-5783951Y+5813369D01*
X-5839600Y+5688159D02*
X-5839600Y+5750764D01*
X-5783951Y+5855106D02*
X-5858150Y+5855106D01*
X-5895249Y+5896842D01*
X-5895249Y+5938579D01*
X-5858150Y+5980316D01*
X-5783951Y+5980316D01*
X-5821050Y+5855106D02*
X-5821050Y+5980316D01*
X-5783951Y+6022053D02*
X-5895249Y+6022053D01*
X-5895249Y+6126394D01*
X-5876699Y+6147263D01*
X-5858150Y+6147263D01*
X-5839600Y+6126394D01*
X-5821050Y+6147263D01*
X-5802501Y+6147263D01*
X-5783951Y+6126394D01*
X-5783951Y+6022053D01*
X-5839600Y+6022053D02*
X-5839600Y+6126394D01*
X-5895249Y+6189000D02*
X-5783951Y+6189000D01*
X-5783951Y+6314210D01*
X-5858150Y+6355947D02*
X-5895249Y+6397683D01*
X-5895249Y+6439420D01*
X-5858150Y+6481157D01*
X-5821050Y+6481157D01*
X-5783951Y+6439420D01*
X-5783951Y+6397683D01*
X-5821050Y+6355947D01*
X-5858150Y+6355947D01*
X-5858150Y+6689841D02*
X-5895249Y+6731577D01*
X-5895249Y+6773314D01*
X-5858150Y+6815051D01*
X-5821050Y+6815051D01*
X-5783951Y+6773314D01*
X-5783951Y+6731577D01*
X-5821050Y+6689841D01*
X-5858150Y+6689841D01*
X-5895249Y+6856788D02*
X-5802501Y+6856788D01*
X-5783951Y+6877656D01*
X-5783951Y+6961129D01*
X-5802501Y+6981998D01*
X-5895249Y+6981998D01*
X-5895249Y+7023735D02*
X-5895249Y+7148945D01*
X-5895249Y+7086340D02*
X-5783951Y+7086340D01*
D20*
X-9637160Y+5362840D02*
X-9362840Y+5362840D01*
X-9362840Y+5637160D01*
X-9637160Y+5637160D01*
X-9637160Y+5362840D01*
D40*
X-9614296Y+5510886D02*
X-9614296Y+5489115D01*
X-9602050Y+5500000D01*
X-9589804Y+5489115D01*
X-9589804Y+5510886D01*
X-9577558Y+5510886D02*
X-9561230Y+5510886D01*
X-9569394Y+5510886D02*
X-9569394Y+5489115D01*
X-9577558Y+5489115D02*
X-9561230Y+5489115D01*
X-9548984Y+5489115D02*
X-9548984Y+5510886D01*
X-9528574Y+5510886D01*
X-9524492Y+5507257D01*
X-9524492Y+5503629D01*
X-9528574Y+5500000D01*
X-9548984Y+5500000D01*
X-9528574Y+5500000D02*
X-9524492Y+5496372D01*
X-9524492Y+5489115D01*
X-9491836Y+5489115D02*
X-9516328Y+5489115D01*
X-9516328Y+5510886D01*
X-9491836Y+5510886D01*
X-9516328Y+5500000D02*
X-9500000Y+5500000D01*
X-9479590Y+5507257D02*
X-9475508Y+5510886D01*
X-9463262Y+5510886D01*
X-9459180Y+5507257D01*
X-9459180Y+5503629D01*
X-9463262Y+5500000D01*
X-9475508Y+5500000D01*
X-9479590Y+5496372D01*
X-9479590Y+5489115D01*
X-9459180Y+5489115D01*
X-9446934Y+5500000D02*
X-9426524Y+5500000D01*
X-9410196Y+5503629D02*
X-9402032Y+5510886D01*
X-9402032Y+5489115D01*
D20*
X-8387160Y+9378840D02*
X-8112840Y+9378840D01*
X-8112840Y+9653160D01*
X-8387160Y+9653160D01*
X-8387160Y+9378840D01*
D40*
X-8364296Y+9526886D02*
X-8364296Y+9505115D01*
X-8352050Y+9516000D01*
X-8339804Y+9505115D01*
X-8339804Y+9526886D01*
X-8327558Y+9526886D02*
X-8311230Y+9526886D01*
X-8319394Y+9526886D02*
X-8319394Y+9505115D01*
X-8327558Y+9505115D02*
X-8311230Y+9505115D01*
X-8298984Y+9505115D02*
X-8298984Y+9526886D01*
X-8278574Y+9526886D01*
X-8274492Y+9523257D01*
X-8274492Y+9519629D01*
X-8278574Y+9516000D01*
X-8298984Y+9516000D01*
X-8278574Y+9516000D02*
X-8274492Y+9512372D01*
X-8274492Y+9505115D01*
X-8241836Y+9505115D02*
X-8266328Y+9505115D01*
X-8266328Y+9526886D01*
X-8241836Y+9526886D01*
X-8266328Y+9516000D02*
X-8250000Y+9516000D01*
X-8225508Y+9519629D02*
X-8217344Y+9526886D01*
X-8217344Y+9505115D01*
X-8196934Y+9516000D02*
X-8176524Y+9516000D01*
X-8164278Y+9523257D02*
X-8160196Y+9526886D01*
X-8147950Y+9526886D01*
X-8143868Y+9523257D01*
X-8143868Y+9519629D01*
X-8147950Y+9516000D01*
X-8160196Y+9516000D01*
X-8164278Y+9512372D01*
X-8164278Y+9505115D01*
X-8143868Y+9505115D01*
D20*
X-9137160Y+5362840D02*
X-8862840Y+5362840D01*
X-8862840Y+5637160D01*
X-9137160Y+5637160D01*
X-9137160Y+5362840D01*
D40*
X-9114296Y+5510886D02*
X-9114296Y+5489115D01*
X-9102050Y+5500000D01*
X-9089804Y+5489115D01*
X-9089804Y+5510886D01*
X-9077558Y+5510886D02*
X-9061230Y+5510886D01*
X-9069394Y+5510886D02*
X-9069394Y+5489115D01*
X-9077558Y+5489115D02*
X-9061230Y+5489115D01*
X-9048984Y+5489115D02*
X-9048984Y+5510886D01*
X-9028574Y+5510886D01*
X-9024492Y+5507257D01*
X-9024492Y+5503629D01*
X-9028574Y+5500000D01*
X-9048984Y+5500000D01*
X-9028574Y+5500000D02*
X-9024492Y+5496372D01*
X-9024492Y+5489115D01*
X-8991836Y+5489115D02*
X-9016328Y+5489115D01*
X-9016328Y+5510886D01*
X-8991836Y+5510886D01*
X-9016328Y+5500000D02*
X-9000000Y+5500000D01*
X-8979590Y+5507257D02*
X-8975508Y+5510886D01*
X-8963262Y+5510886D01*
X-8959180Y+5507257D01*
X-8959180Y+5503629D01*
X-8963262Y+5500000D01*
X-8959180Y+5496372D01*
X-8959180Y+5492743D01*
X-8963262Y+5489115D01*
X-8975508Y+5489115D01*
X-8979590Y+5492743D01*
X-8971426Y+5500000D02*
X-8963262Y+5500000D01*
X-8946934Y+5500000D02*
X-8926524Y+5500000D01*
X-8910196Y+5503629D02*
X-8902032Y+5510886D01*
X-8902032Y+5489115D01*
D20*
X-9137160Y+5862840D02*
X-8862840Y+5862840D01*
X-8862840Y+6137160D01*
X-9137160Y+6137160D01*
X-9137160Y+5862840D01*
D40*
X-9114296Y+6010886D02*
X-9114296Y+5989115D01*
X-9102050Y+6000000D01*
X-9089804Y+5989115D01*
X-9089804Y+6010886D01*
X-9077558Y+6010886D02*
X-9061230Y+6010886D01*
X-9069394Y+6010886D02*
X-9069394Y+5989115D01*
X-9077558Y+5989115D02*
X-9061230Y+5989115D01*
X-9048984Y+5989115D02*
X-9048984Y+6010886D01*
X-9028574Y+6010886D01*
X-9024492Y+6007257D01*
X-9024492Y+6003629D01*
X-9028574Y+6000000D01*
X-9048984Y+6000000D01*
X-9028574Y+6000000D02*
X-9024492Y+5996372D01*
X-9024492Y+5989115D01*
X-8991836Y+5989115D02*
X-9016328Y+5989115D01*
X-9016328Y+6010886D01*
X-8991836Y+6010886D01*
X-9016328Y+6000000D02*
X-9000000Y+6000000D01*
X-8975508Y+6003629D02*
X-8967344Y+6010886D01*
X-8967344Y+5989115D01*
X-8946934Y+6000000D02*
X-8926524Y+6000000D01*
X-8910196Y+6003629D02*
X-8902032Y+6010886D01*
X-8902032Y+5989115D01*
D20*
X-7637160Y+7112840D02*
X-7362840Y+7112840D01*
X-7362840Y+7387160D01*
X-7637160Y+7387160D01*
X-7637160Y+7112840D01*
D40*
X-7614296Y+7260886D02*
X-7614296Y+7239115D01*
X-7602050Y+7250000D01*
X-7589804Y+7239115D01*
X-7589804Y+7260886D01*
X-7577558Y+7260886D02*
X-7561230Y+7260886D01*
X-7569394Y+7260886D02*
X-7569394Y+7239115D01*
X-7577558Y+7239115D02*
X-7561230Y+7239115D01*
X-7548984Y+7239115D02*
X-7548984Y+7260886D01*
X-7528574Y+7260886D01*
X-7524492Y+7257257D01*
X-7524492Y+7253629D01*
X-7528574Y+7250000D01*
X-7548984Y+7250000D01*
X-7528574Y+7250000D02*
X-7524492Y+7246372D01*
X-7524492Y+7239115D01*
X-7491836Y+7239115D02*
X-7516328Y+7239115D01*
X-7516328Y+7260886D01*
X-7491836Y+7260886D01*
X-7516328Y+7250000D02*
X-7500000Y+7250000D01*
X-7479590Y+7257257D02*
X-7475508Y+7260886D01*
X-7463262Y+7260886D01*
X-7459180Y+7257257D01*
X-7459180Y+7253629D01*
X-7463262Y+7250000D01*
X-7459180Y+7246372D01*
X-7459180Y+7242743D01*
X-7463262Y+7239115D01*
X-7475508Y+7239115D01*
X-7479590Y+7242743D01*
X-7471426Y+7250000D02*
X-7463262Y+7250000D01*
X-7446934Y+7250000D02*
X-7426524Y+7250000D01*
X-7414278Y+7257257D02*
X-7410196Y+7260886D01*
X-7397950Y+7260886D01*
X-7393868Y+7257257D01*
X-7393868Y+7253629D01*
X-7397950Y+7250000D01*
X-7410196Y+7250000D01*
X-7414278Y+7246372D01*
X-7414278Y+7239115D01*
X-7393868Y+7239115D01*
D20*
X-6887160Y+4612840D02*
X-6612840Y+4612840D01*
X-6612840Y+4887160D01*
X-6887160Y+4887160D01*
X-6887160Y+4612840D01*
D40*
X-6864296Y+4760886D02*
X-6864296Y+4739115D01*
X-6852050Y+4750000D01*
X-6839804Y+4739115D01*
X-6839804Y+4760886D01*
X-6827558Y+4760886D02*
X-6811230Y+4760886D01*
X-6819394Y+4760886D02*
X-6819394Y+4739115D01*
X-6827558Y+4739115D02*
X-6811230Y+4739115D01*
X-6798984Y+4739115D02*
X-6798984Y+4760886D01*
X-6778574Y+4760886D01*
X-6774492Y+4757257D01*
X-6774492Y+4753629D01*
X-6778574Y+4750000D01*
X-6798984Y+4750000D01*
X-6778574Y+4750000D02*
X-6774492Y+4746372D01*
X-6774492Y+4739115D01*
X-6741836Y+4739115D02*
X-6766328Y+4739115D01*
X-6766328Y+4760886D01*
X-6741836Y+4760886D01*
X-6766328Y+4750000D02*
X-6750000Y+4750000D01*
X-6709180Y+4746372D02*
X-6733672Y+4746372D01*
X-6717344Y+4760886D01*
X-6717344Y+4739115D01*
X-6696934Y+4750000D02*
X-6676524Y+4750000D01*
X-6660196Y+4753629D02*
X-6652032Y+4760886D01*
X-6652032Y+4739115D01*
D20*
X-8387160Y+6612840D02*
X-8112840Y+6612840D01*
X-8112840Y+6887160D01*
X-8387160Y+6887160D01*
X-8387160Y+6612840D01*
D40*
X-8364296Y+6760886D02*
X-8364296Y+6739115D01*
X-8352050Y+6750000D01*
X-8339804Y+6739115D01*
X-8339804Y+6760886D01*
X-8327558Y+6760886D02*
X-8311230Y+6760886D01*
X-8319394Y+6760886D02*
X-8319394Y+6739115D01*
X-8327558Y+6739115D02*
X-8311230Y+6739115D01*
X-8298984Y+6739115D02*
X-8298984Y+6760886D01*
X-8278574Y+6760886D01*
X-8274492Y+6757257D01*
X-8274492Y+6753629D01*
X-8278574Y+6750000D01*
X-8298984Y+6750000D01*
X-8278574Y+6750000D02*
X-8274492Y+6746372D01*
X-8274492Y+6739115D01*
X-8241836Y+6739115D02*
X-8266328Y+6739115D01*
X-8266328Y+6760886D01*
X-8241836Y+6760886D01*
X-8266328Y+6750000D02*
X-8250000Y+6750000D01*
X-8209180Y+6746372D02*
X-8233672Y+6746372D01*
X-8217344Y+6760886D01*
X-8217344Y+6739115D01*
X-8196934Y+6750000D02*
X-8176524Y+6750000D01*
X-8164278Y+6757257D02*
X-8160196Y+6760886D01*
X-8147950Y+6760886D01*
X-8143868Y+6757257D01*
X-8143868Y+6753629D01*
X-8147950Y+6750000D01*
X-8160196Y+6750000D01*
X-8164278Y+6746372D01*
X-8164278Y+6739115D01*
X-8143868Y+6739115D01*
M02*
