G04 PROTEUS GERBER X2 FILE*
%TF.GenerationSoftware,Labcenter,Proteus,8.10-SP3-Build29560*%
%TF.CreationDate,2022-03-23T18:48:53+00:00*%
%TF.FileFunction,Copper,L2,Bot*%
%TF.FilePolarity,Positive*%
%TF.Part,Single*%
%TF.SameCoordinates,{eb7d761e-84b3-45e6-87e7-5047ee7461e7}*%
%FSLAX45Y45*%
%MOMM*%
G01*
%TA.AperFunction,Conductor*%
%ADD17C,1.016000*%
%TA.AperFunction,NonConductor*%
%ADD18C,1.016000*%
%TA.AperFunction,Conductor*%
%ADD19C,1.524000*%
%ADD70C,1.270000*%
%AMDIL000*
4,1,8,
-1.270000,0.457200,-0.965200,0.762000,0.965200,0.762000,1.270000,0.457200,1.270000,-0.457200,
0.965200,-0.762000,-0.965200,-0.762000,-1.270000,-0.457200,-1.270000,0.457200,
0*%
%TA.AperFunction,ComponentPad*%
%ADD10DIL000*%
%TA.AperFunction,ComponentPad*%
%ADD11C,1.778000*%
%TA.AperFunction,ComponentPad*%
%ADD12R,2.032000X2.032000*%
%TA.AperFunction,ComponentPad*%
%ADD13C,3.048000*%
%TA.AperFunction,ComponentPad*%
%ADD14C,1.397000*%
%TA.AperFunction,OtherPad,Unknown*%
%ADD15R,2.286000X2.286000*%
%TA.AperFunction,Profile*%
%ADD16C,0.203200*%
%TD.AperFunction*%
D17*
X-9750000Y+6250000D02*
X-9750000Y+6858000D01*
X-9904000Y+7012000D01*
X-10250000Y+7012000D01*
X-9750000Y+7266000D02*
X-10250000Y+7266000D01*
X-8771000Y+7508000D02*
X-8029000Y+7508000D01*
X-8021000Y+7500000D01*
D18*
X-11774000Y+6250000D02*
X-11774000Y+5774000D01*
X-11750000Y+5750000D01*
D17*
X-6500000Y+6762000D02*
X-6500000Y+10477500D01*
X-6772500Y+10750000D01*
X-12500000Y+10750000D01*
X-12500000Y+9044000D01*
X-11774000Y+9044000D01*
X-10250000Y+9298000D02*
X-9798000Y+9298000D01*
X-9000000Y+8500000D01*
X-8750000Y+8500000D01*
X-10250000Y+9552000D02*
X-9552000Y+9552000D01*
X-9008000Y+9008000D01*
X-8750000Y+9008000D01*
X-10250000Y+9806000D02*
X-9428264Y+9806000D01*
X-9388161Y+9765897D01*
X-8911071Y+9288807D01*
X-8911071Y+9268649D01*
X-8756649Y+9268649D01*
X-8750000Y+9262000D01*
X-11774000Y+9806000D02*
X-11774000Y+10223500D01*
X-11747500Y+10250000D01*
X-8000000Y+10250000D01*
X-7750000Y+10000000D01*
X-7750000Y+9000000D01*
X-7996000Y+8754000D01*
X-8750000Y+8754000D01*
D19*
X-9500000Y+5500000D02*
X-9250000Y+5500000D01*
X-9000000Y+5500000D01*
X-9000000Y+5651500D01*
X-9000000Y+6000000D01*
X-9500000Y+5500000D02*
X-10250000Y+5500000D01*
X-10250000Y+4500000D01*
D17*
X-11774000Y+6504000D02*
X-11239500Y+6504000D01*
X-11250000Y+6514500D01*
X-11250000Y+10000000D01*
X-8750000Y+10000000D01*
X-8750000Y+9770000D01*
X-6754000Y+6127000D02*
X-7051964Y+6127000D01*
X-7159293Y+6019671D01*
X-8980329Y+6019671D01*
X-9000000Y+6000000D01*
X-9742000Y+4500000D02*
X-9750000Y+5000000D01*
X-8500000Y+5000000D01*
X-8250000Y+5750000D01*
X-6750000Y+5750000D01*
X-6480950Y+5980950D01*
X-6500000Y+6000000D01*
X-9750000Y+4492000D02*
X-9742000Y+4500000D01*
X-6750000Y+4750000D02*
X-5750000Y+4750000D01*
X-5735346Y+4506654D01*
X-5742000Y+4500000D01*
D19*
X-6250000Y+4500000D02*
X-6250000Y+4000000D01*
X-9247003Y+4000000D01*
X-9247003Y+4486997D01*
X-9234000Y+4500000D01*
X-5742000Y+4500000D02*
X-5742000Y+3810456D01*
X-5802456Y+3750000D01*
X-9750000Y+3750000D01*
D17*
X-6754000Y+6635000D02*
X-7052412Y+6635000D01*
X-7059056Y+6641644D01*
X-7059056Y+7738461D01*
X-7063497Y+7742902D01*
X-8992902Y+7742902D01*
X-9000000Y+7750000D01*
X-9732272Y+8482272D01*
X-9732272Y+8484475D01*
X-9878811Y+8631014D01*
X-9878811Y+8648776D01*
X-9878811Y+9026224D01*
X-9883251Y+9030664D01*
X-10236664Y+9030664D01*
X-10250000Y+9044000D01*
D18*
X-11774000Y+9552000D02*
X-12147517Y+9552000D01*
X-12161890Y+9566373D01*
X-12161890Y+10503431D01*
X-7003431Y+10503431D01*
X-6750000Y+10250000D01*
X-6750000Y+6895563D01*
X-6745793Y+6891356D01*
D17*
X-8000000Y+4500000D02*
X-7250000Y+5250000D01*
X-6500000Y+5250000D01*
X-6484305Y+5250000D01*
X-6130042Y+5604263D01*
X-6121575Y+5612730D01*
X-6121575Y+6502530D01*
X-6116357Y+6507748D01*
X-6499748Y+6507748D01*
X-6500000Y+6508000D01*
X-8508000Y+4500000D02*
X-7510198Y+5497802D01*
X-7319518Y+5497802D01*
X-6637980Y+5497802D01*
X-6307721Y+5828061D01*
X-6307721Y+6239385D01*
X-6298714Y+6248392D01*
X-6494392Y+6248392D01*
X-6500000Y+6254000D01*
X-8021000Y+7246000D02*
X-8021000Y+7271000D01*
X-8000000Y+7250000D01*
X-7500000Y+7250000D01*
X-8250000Y+6750000D02*
X-8767000Y+6750000D01*
X-8771000Y+6746000D01*
X-10250000Y+8282000D02*
X-9894868Y+8282000D01*
X-9880735Y+8267867D01*
X-8866868Y+7254000D01*
X-8771000Y+7254000D01*
X-10250000Y+8028000D02*
X-9935022Y+8028000D01*
X-9932095Y+8025073D01*
X-8909559Y+7002537D01*
X-8890883Y+7002537D01*
X-8773537Y+7002537D01*
X-8771000Y+7000000D01*
X-9750000Y+7266000D02*
X-8865000Y+6381000D01*
X-6754000Y+6381000D01*
X-8750000Y+9516000D02*
X-8750000Y+9532000D01*
X-8266000Y+9532000D01*
X-8250000Y+9516000D01*
D19*
X-9750000Y+4492000D02*
X-9750000Y+3750000D01*
X-10500000Y+3750000D01*
D70*
X-10500000Y+5842000D01*
X-9750000Y+5842000D01*
X-9750000Y+6250000D01*
D19*
X-10500000Y+3750000D02*
X-12250000Y+3750000D01*
X-12250000Y+6500000D01*
X-11783662Y+6494338D01*
X-11774000Y+6504000D01*
D17*
X-10250000Y+8536000D02*
X-10750000Y+8536000D01*
X-10750000Y+5750000D01*
X-11000000Y+5500000D01*
X-10992000Y+4500000D01*
X-11500000Y+4500000D02*
X-11500000Y+5500000D01*
X-11000000Y+6000000D01*
X-11000000Y+8790000D01*
X-10250000Y+8790000D01*
D10*
X-10250000Y+6250000D03*
X-10250000Y+6504000D03*
X-10250000Y+6758000D03*
X-10250000Y+7012000D03*
X-10250000Y+7266000D03*
X-10250000Y+7520000D03*
X-10250000Y+7774000D03*
X-10250000Y+8028000D03*
X-10250000Y+8282000D03*
X-10250000Y+8536000D03*
X-10250000Y+8790000D03*
X-10250000Y+9044000D03*
X-10250000Y+9298000D03*
X-10250000Y+9552000D03*
X-10250000Y+9806000D03*
X-11774000Y+9806000D03*
X-11774000Y+9552000D03*
X-11774000Y+9298000D03*
X-11774000Y+9044000D03*
X-11774000Y+8790000D03*
X-11774000Y+8536000D03*
X-11774000Y+8282000D03*
X-11774000Y+8028000D03*
X-11774000Y+7774000D03*
X-11774000Y+7520000D03*
X-11774000Y+7266000D03*
X-11774000Y+7012000D03*
X-11774000Y+6758000D03*
X-11774000Y+6504000D03*
X-11774000Y+6250000D03*
X-8750000Y+8500000D03*
X-8750000Y+8754000D03*
X-8750000Y+9008000D03*
X-8750000Y+9262000D03*
X-8750000Y+9516000D03*
X-8750000Y+9770000D03*
D11*
X-9750000Y+6250000D03*
X-9750000Y+7266000D03*
D12*
X-8771000Y+6746000D03*
X-8771000Y+7000000D03*
X-8771000Y+7254000D03*
X-8771000Y+7508000D03*
D13*
X-6250000Y+4500000D03*
X-5742000Y+4500000D03*
X-11500000Y+4500000D03*
X-10992000Y+4500000D03*
X-8000000Y+4500000D03*
X-8508000Y+4500000D03*
X-9234000Y+4500000D03*
X-9742000Y+4500000D03*
X-10250000Y+4500000D03*
D12*
X-8021000Y+7246000D03*
X-8021000Y+7500000D03*
D14*
X-6500000Y+6000000D03*
X-6754000Y+6127000D03*
X-6500000Y+6254000D03*
X-6754000Y+6381000D03*
X-6500000Y+6508000D03*
X-6754000Y+6635000D03*
X-6500000Y+6762000D03*
X-6754000Y+6889000D03*
D15*
X-11750000Y+5750000D03*
D12*
X-9500000Y+5500000D03*
X-8250000Y+9516000D03*
X-9000000Y+5500000D03*
X-9000000Y+6000000D03*
X-7500000Y+7250000D03*
X-6750000Y+4750000D03*
X-8250000Y+6750000D03*
D16*
X-12750000Y+3250000D02*
X-4750000Y+3250000D01*
X-4750000Y+11250000D01*
X-12750000Y+11250000D01*
X-12750000Y+3250000D01*
M02*
