G04 PROTEUS GERBER X2 FILE*
%TF.GenerationSoftware,Labcenter,Proteus,8.10-SP3-Build29560*%
%TF.CreationDate,2022-03-23T18:48:53+00:00*%
%TF.FileFunction,Soldermask,Bot*%
%TF.FilePolarity,Negative*%
%TF.Part,Single*%
%TF.SameCoordinates,{eb7d761e-84b3-45e6-87e7-5047ee7461e7}*%
%FSLAX45Y45*%
%MOMM*%
G01*
%AMPPAD013*
4,1,8,
-1.397000,-0.509800,
-1.397000,0.509800,
-1.017800,0.889000,
1.017800,0.889000,
1.397000,0.509800,
1.397000,-0.509800,
1.017800,-0.889000,
-1.017800,-0.889000,
-1.397000,-0.509800,
0*%
%TA.AperFunction,Material*%
%ADD21PPAD013*%
%TA.AperFunction,Material*%
%ADD22C,2.032000*%
%AMPPAD015*
4,1,36,
-1.143000,-1.016000,
-1.143000,1.016000,
-1.140470,1.041970,
-1.133200,1.065980,
-1.121650,1.087580,
-1.106290,1.106290,
-1.087570,1.121650,
-1.065980,1.133200,
-1.041970,1.140470,
-1.016000,1.143000,
1.016000,1.143000,
1.041970,1.140470,
1.065980,1.133200,
1.087570,1.121650,
1.106290,1.106290,
1.121650,1.087580,
1.133200,1.065980,
1.140470,1.041970,
1.143000,1.016000,
1.143000,-1.016000,
1.140470,-1.041970,
1.133200,-1.065980,
1.121650,-1.087580,
1.106290,-1.106290,
1.087570,-1.121650,
1.065980,-1.133200,
1.041970,-1.140470,
1.016000,-1.143000,
-1.016000,-1.143000,
-1.041970,-1.140470,
-1.065980,-1.133200,
-1.087570,-1.121650,
-1.106290,-1.106290,
-1.121650,-1.087580,
-1.133200,-1.065980,
-1.140470,-1.041970,
-1.143000,-1.016000,
0*%
%TA.AperFunction,Material*%
%ADD23PPAD015*%
%TA.AperFunction,Material*%
%ADD24C,3.302000*%
%TA.AperFunction,Material*%
%ADD25C,1.905000*%
%AMPPAD018*
4,1,36,
-1.143000,1.270000,
1.143000,1.270000,
1.168970,1.267470,
1.192980,1.260200,
1.214580,1.248650,
1.233290,1.233290,
1.248650,1.214570,
1.260200,1.192980,
1.267470,1.168970,
1.270000,1.143000,
1.270000,-1.143000,
1.267470,-1.168970,
1.260200,-1.192980,
1.248650,-1.214570,
1.233290,-1.233290,
1.214580,-1.248650,
1.192980,-1.260200,
1.168970,-1.267470,
1.143000,-1.270000,
-1.143000,-1.270000,
-1.168970,-1.267470,
-1.192980,-1.260200,
-1.214580,-1.248650,
-1.233290,-1.233290,
-1.248650,-1.214570,
-1.260200,-1.192980,
-1.267470,-1.168970,
-1.270000,-1.143000,
-1.270000,1.143000,
-1.267470,1.168970,
-1.260200,1.192980,
-1.248650,1.214570,
-1.233290,1.233290,
-1.214580,1.248650,
-1.192980,1.260200,
-1.168970,1.267470,
-1.143000,1.270000,
0*%
%TA.AperFunction,Material*%
%ADD26PPAD018*%
%AMPPAD019*
4,1,36,
-1.016000,1.143000,
1.016000,1.143000,
1.041970,1.140470,
1.065980,1.133200,
1.087580,1.121650,
1.106290,1.106290,
1.121650,1.087570,
1.133200,1.065980,
1.140470,1.041970,
1.143000,1.016000,
1.143000,-1.016000,
1.140470,-1.041970,
1.133200,-1.065980,
1.121650,-1.087570,
1.106290,-1.106290,
1.087580,-1.121650,
1.065980,-1.133200,
1.041970,-1.140470,
1.016000,-1.143000,
-1.016000,-1.143000,
-1.041970,-1.140470,
-1.065980,-1.133200,
-1.087580,-1.121650,
-1.106290,-1.106290,
-1.121650,-1.087570,
-1.133200,-1.065980,
-1.140470,-1.041970,
-1.143000,-1.016000,
-1.143000,1.016000,
-1.140470,1.041970,
-1.133200,1.065980,
-1.121650,1.087570,
-1.106290,1.106290,
-1.087580,1.121650,
-1.065980,1.133200,
-1.041970,1.140470,
-1.016000,1.143000,
0*%
%TA.AperFunction,Material*%
%ADD27PPAD019*%
%TA.AperFunction,Profile*%
%ADD16C,0.203200*%
%TD.AperFunction*%
D21*
X-10250000Y+6250000D03*
X-10250000Y+6504000D03*
X-10250000Y+6758000D03*
X-10250000Y+7012000D03*
X-10250000Y+7266000D03*
X-10250000Y+7520000D03*
X-10250000Y+7774000D03*
X-10250000Y+8028000D03*
X-10250000Y+8282000D03*
X-10250000Y+8536000D03*
X-10250000Y+8790000D03*
X-10250000Y+9044000D03*
X-10250000Y+9298000D03*
X-10250000Y+9552000D03*
X-10250000Y+9806000D03*
X-11774000Y+9806000D03*
X-11774000Y+9552000D03*
X-11774000Y+9298000D03*
X-11774000Y+9044000D03*
X-11774000Y+8790000D03*
X-11774000Y+8536000D03*
X-11774000Y+8282000D03*
X-11774000Y+8028000D03*
X-11774000Y+7774000D03*
X-11774000Y+7520000D03*
X-11774000Y+7266000D03*
X-11774000Y+7012000D03*
X-11774000Y+6758000D03*
X-11774000Y+6504000D03*
X-11774000Y+6250000D03*
X-8750000Y+8500000D03*
X-8750000Y+8754000D03*
X-8750000Y+9008000D03*
X-8750000Y+9262000D03*
X-8750000Y+9516000D03*
X-8750000Y+9770000D03*
D22*
X-9750000Y+6250000D03*
X-9750000Y+7266000D03*
D23*
X-8771000Y+6746000D03*
X-8771000Y+7000000D03*
X-8771000Y+7254000D03*
X-8771000Y+7508000D03*
D24*
X-6250000Y+4500000D03*
X-5742000Y+4500000D03*
X-11500000Y+4500000D03*
X-10992000Y+4500000D03*
X-8000000Y+4500000D03*
X-8508000Y+4500000D03*
X-9234000Y+4500000D03*
X-9742000Y+4500000D03*
X-10250000Y+4500000D03*
D23*
X-8021000Y+7246000D03*
X-8021000Y+7500000D03*
D25*
X-6500000Y+6000000D03*
X-6754000Y+6127000D03*
X-6500000Y+6254000D03*
X-6754000Y+6381000D03*
X-6500000Y+6508000D03*
X-6754000Y+6635000D03*
X-6500000Y+6762000D03*
X-6754000Y+6889000D03*
D26*
X-11750000Y+5750000D03*
D27*
X-9500000Y+5500000D03*
X-8250000Y+9516000D03*
X-9000000Y+5500000D03*
X-9000000Y+6000000D03*
X-7500000Y+7250000D03*
X-6750000Y+4750000D03*
X-8250000Y+6750000D03*
D16*
X-12750000Y+3250000D02*
X-4750000Y+3250000D01*
X-4750000Y+11250000D01*
X-12750000Y+11250000D01*
X-12750000Y+3250000D01*
M02*
