G04 PROTEUS GERBER X2 FILE*
%TF.GenerationSoftware,Labcenter,Proteus,8.10-SP3-Build29560*%
%TF.CreationDate,2022-02-24T20:56:41+00:00*%
%TF.FileFunction,AssemblyDrawing,Top*%
%TF.FilePolarity,Positive*%
%TF.Part,Single*%
%TF.SameCoordinates,{e0c8fd6e-37dc-4a7a-b3f3-70e9e95a6a86}*%
%FSLAX45Y45*%
%MOMM*%
G01*
%TA.AperFunction,Profile*%
%ADD15C,0.203200*%
%TA.AperFunction,Material*%
%ADD18C,0.203200*%
%ADD23C,1.016000*%
%ADD24C,0.801370*%
%ADD25C,0.095430*%
%ADD26C,1.219200*%
%ADD27C,0.122420*%
%ADD28C,0.109190*%
%ADD29C,0.122940*%
%ADD72C,0.139330*%
%ADD73C,0.711200*%
%ADD30C,0.110230*%
%ADD31C,0.812800*%
%ADD32C,0.139700*%
%ADD33C,0.204890*%
%ADD34C,0.076270*%
%TD.AperFunction*%
D15*
X-10500000Y-3000000D02*
X-1500000Y-3000000D01*
X-1500000Y+11500000D01*
X-10500000Y+11500000D01*
X-10500000Y-3000000D01*
D18*
X-9401000Y+6112840D02*
X-7623000Y+6112840D01*
X-7623000Y+9943160D01*
X-9401000Y+9943160D01*
X-9401000Y+6112840D01*
D23*
X-7750000Y+6250000D02*
X-7750000Y+6250000D01*
D24*
X-8351726Y+6679514D02*
X-8271589Y+6769668D01*
X-8271589Y+7130284D01*
X-8351726Y+7220438D01*
X-8431863Y+7220438D01*
X-8512000Y+7130284D01*
X-8512000Y+6769668D01*
X-8592137Y+6679514D01*
X-8672274Y+6679514D01*
X-8752411Y+6769668D01*
X-8752411Y+7130284D01*
X-8672274Y+7220438D01*
X-8752411Y+7490901D02*
X-8752411Y+7851517D01*
X-8752411Y+7671209D02*
X-8271589Y+7671209D01*
X-8271589Y+7490901D02*
X-8271589Y+7851517D01*
X-8271589Y+8121980D02*
X-8752411Y+8121980D01*
X-8512000Y+8392442D01*
X-8752411Y+8662904D01*
X-8271589Y+8662904D01*
X-8592137Y+9023521D02*
X-8752411Y+9203829D01*
X-8271589Y+9203829D01*
D18*
X-4907160Y+6299340D02*
X-3362840Y+6299340D01*
X-3362840Y+6700660D01*
X-4907160Y+6700660D01*
X-4907160Y+6299340D01*
D23*
X-3500000Y+6500000D02*
X-3500000Y+6500000D01*
D25*
X-4830189Y+6480914D02*
X-4819454Y+6471371D01*
X-4776510Y+6471371D01*
X-4765774Y+6480914D01*
X-4765774Y+6490457D01*
X-4776510Y+6500000D01*
X-4819454Y+6500000D01*
X-4830189Y+6509543D01*
X-4830189Y+6519086D01*
X-4819454Y+6528629D01*
X-4776510Y+6528629D01*
X-4765774Y+6519086D01*
X-4744302Y+6471371D02*
X-4744302Y+6528629D01*
X-4701359Y+6528629D01*
X-4679887Y+6509543D01*
X-4679887Y+6490457D01*
X-4701359Y+6471371D01*
X-4744302Y+6471371D01*
X-4508113Y+6480914D02*
X-4518849Y+6471371D01*
X-4551057Y+6471371D01*
X-4572528Y+6490457D01*
X-4572528Y+6509543D01*
X-4551057Y+6528629D01*
X-4518849Y+6528629D01*
X-4508113Y+6519086D01*
X-4486641Y+6471371D02*
X-4486641Y+6509543D01*
X-4465170Y+6528629D01*
X-4443698Y+6528629D01*
X-4422226Y+6509543D01*
X-4422226Y+6471371D01*
X-4486641Y+6490457D02*
X-4422226Y+6490457D01*
X-4400754Y+6471371D02*
X-4400754Y+6528629D01*
X-4347075Y+6528629D01*
X-4336339Y+6519086D01*
X-4336339Y+6509543D01*
X-4347075Y+6500000D01*
X-4400754Y+6500000D01*
X-4347075Y+6500000D02*
X-4336339Y+6490457D01*
X-4336339Y+6471371D01*
X-4314867Y+6471371D02*
X-4314867Y+6528629D01*
X-4271924Y+6528629D01*
X-4250452Y+6509543D01*
X-4250452Y+6490457D01*
X-4271924Y+6471371D01*
X-4314867Y+6471371D01*
X-4143093Y+6471371D02*
X-4143093Y+6528629D01*
X-4089414Y+6528629D01*
X-4078678Y+6519086D01*
X-4078678Y+6509543D01*
X-4089414Y+6500000D01*
X-4143093Y+6500000D01*
X-4089414Y+6500000D02*
X-4078678Y+6490457D01*
X-4078678Y+6471371D01*
X-3992791Y+6471371D02*
X-4057206Y+6471371D01*
X-4057206Y+6528629D01*
X-3992791Y+6528629D01*
X-4057206Y+6500000D02*
X-4014263Y+6500000D01*
X-3971319Y+6471371D02*
X-3971319Y+6509543D01*
X-3949848Y+6528629D01*
X-3928376Y+6528629D01*
X-3906904Y+6509543D01*
X-3906904Y+6471371D01*
X-3971319Y+6490457D02*
X-3906904Y+6490457D01*
X-3885432Y+6471371D02*
X-3885432Y+6528629D01*
X-3842489Y+6528629D01*
X-3821017Y+6509543D01*
X-3821017Y+6490457D01*
X-3842489Y+6471371D01*
X-3885432Y+6471371D01*
X-3735130Y+6471371D02*
X-3799545Y+6471371D01*
X-3799545Y+6528629D01*
X-3735130Y+6528629D01*
X-3799545Y+6500000D02*
X-3756602Y+6500000D01*
X-3713658Y+6471371D02*
X-3713658Y+6528629D01*
X-3659979Y+6528629D01*
X-3649243Y+6519086D01*
X-3649243Y+6509543D01*
X-3659979Y+6500000D01*
X-3713658Y+6500000D01*
X-3659979Y+6500000D02*
X-3649243Y+6490457D01*
X-3649243Y+6471371D01*
D18*
X-3518160Y-264160D02*
X-2481840Y-264160D01*
X-2481840Y+772160D01*
X-3518160Y+772160D01*
X-3518160Y-264160D01*
D26*
X-3000000Y+0D02*
X-3000000Y+0D01*
D27*
X-3440740Y+453288D02*
X-3440740Y+379831D01*
X-3358102Y+379831D01*
X-3316782Y+441045D02*
X-3303009Y+453288D01*
X-3261690Y+453288D01*
X-3247917Y+441045D01*
X-3247917Y+428802D01*
X-3261690Y+416560D01*
X-3303009Y+416560D01*
X-3316782Y+404317D01*
X-3316782Y+379831D01*
X-3247917Y+379831D01*
X-3137732Y+428802D02*
X-3151505Y+416560D01*
X-3192824Y+416560D01*
X-3206597Y+428802D01*
X-3206597Y+441045D01*
X-3192824Y+453288D01*
X-3151505Y+453288D01*
X-3137732Y+441045D01*
X-3137732Y+392074D01*
X-3151505Y+379831D01*
X-3192824Y+379831D01*
X-3082639Y+416560D02*
X-3096412Y+428802D01*
X-3096412Y+441045D01*
X-3082639Y+453288D01*
X-3041320Y+453288D01*
X-3027547Y+441045D01*
X-3027547Y+428802D01*
X-3041320Y+416560D01*
X-3082639Y+416560D01*
X-3096412Y+404317D01*
X-3096412Y+392074D01*
X-3082639Y+379831D01*
X-3041320Y+379831D01*
X-3027547Y+392074D01*
X-3027547Y+404317D01*
X-3041320Y+416560D01*
X-2889815Y+428802D02*
X-2862269Y+453288D01*
X-2834723Y+453288D01*
X-2807177Y+428802D01*
X-2807177Y+404317D01*
X-2834723Y+379831D01*
X-2862269Y+379831D01*
X-2889815Y+404317D01*
X-2889815Y+428802D01*
X-2779630Y+453288D02*
X-2779630Y+392074D01*
X-2765857Y+379831D01*
X-2710765Y+379831D01*
X-2696992Y+392074D01*
X-2696992Y+453288D01*
X-2669445Y+453288D02*
X-2586807Y+453288D01*
X-2628126Y+453288D02*
X-2628126Y+379831D01*
D18*
X-8522160Y+2981840D02*
X-7485840Y+2981840D01*
X-7485840Y+4018160D01*
X-8522160Y+4018160D01*
X-8522160Y+2981840D01*
D26*
X-7750000Y+3500000D02*
X-7750000Y+3500000D01*
D28*
X-8199318Y+3057767D02*
X-8133801Y+3057767D01*
X-8133801Y+3131472D01*
X-8188398Y+3168325D02*
X-8199318Y+3180609D01*
X-8199318Y+3217462D01*
X-8188398Y+3229746D01*
X-8177479Y+3229746D01*
X-8166560Y+3217462D01*
X-8166560Y+3180609D01*
X-8155640Y+3168325D01*
X-8133801Y+3168325D01*
X-8133801Y+3229746D01*
X-8177479Y+3328020D02*
X-8166560Y+3315736D01*
X-8166560Y+3278883D01*
X-8177479Y+3266599D01*
X-8188398Y+3266599D01*
X-8199318Y+3278883D01*
X-8199318Y+3315736D01*
X-8188398Y+3328020D01*
X-8144721Y+3328020D01*
X-8133801Y+3315736D01*
X-8133801Y+3278883D01*
X-8166560Y+3377157D02*
X-8177479Y+3364873D01*
X-8188398Y+3364873D01*
X-8199318Y+3377157D01*
X-8199318Y+3414010D01*
X-8188398Y+3426294D01*
X-8177479Y+3426294D01*
X-8166560Y+3414010D01*
X-8166560Y+3377157D01*
X-8155640Y+3364873D01*
X-8144721Y+3364873D01*
X-8133801Y+3377157D01*
X-8133801Y+3414010D01*
X-8144721Y+3426294D01*
X-8155640Y+3426294D01*
X-8166560Y+3414010D01*
X-8133801Y+3450863D02*
X-8199318Y+3450863D01*
X-8133801Y+3524568D01*
X-8199318Y+3524568D01*
X-8133801Y+3647411D02*
X-8199318Y+3647411D01*
X-8199318Y+3708832D01*
X-8188398Y+3721116D01*
X-8177479Y+3721116D01*
X-8166560Y+3708832D01*
X-8166560Y+3647411D01*
X-8199318Y+3745685D02*
X-8133801Y+3745685D01*
X-8166560Y+3782537D01*
X-8133801Y+3819390D01*
X-8199318Y+3819390D01*
X-8133801Y+3843959D02*
X-8199318Y+3843959D01*
X-8166560Y+3880811D01*
X-8199318Y+3917664D01*
X-8133801Y+3917664D01*
D18*
X-6780160Y+2981840D02*
X-5235840Y+2981840D01*
X-5235840Y+4018160D01*
X-6780160Y+4018160D01*
X-6780160Y+2981840D01*
D26*
X-5500000Y+3500000D02*
X-5500000Y+3500000D01*
D29*
X-6668489Y+3536883D02*
X-6668489Y+3463116D01*
X-6585501Y+3463116D01*
X-6544007Y+3524589D02*
X-6530176Y+3536883D01*
X-6488682Y+3536883D01*
X-6474850Y+3524589D01*
X-6474850Y+3512294D01*
X-6488682Y+3500000D01*
X-6530176Y+3500000D01*
X-6544007Y+3487705D01*
X-6544007Y+3463116D01*
X-6474850Y+3463116D01*
X-6364199Y+3512294D02*
X-6378031Y+3500000D01*
X-6419525Y+3500000D01*
X-6433356Y+3512294D01*
X-6433356Y+3524589D01*
X-6419525Y+3536883D01*
X-6378031Y+3536883D01*
X-6364199Y+3524589D01*
X-6364199Y+3475410D01*
X-6378031Y+3463116D01*
X-6419525Y+3463116D01*
X-6308874Y+3500000D02*
X-6322705Y+3512294D01*
X-6322705Y+3524589D01*
X-6308874Y+3536883D01*
X-6267380Y+3536883D01*
X-6253548Y+3524589D01*
X-6253548Y+3512294D01*
X-6267380Y+3500000D01*
X-6308874Y+3500000D01*
X-6322705Y+3487705D01*
X-6322705Y+3475410D01*
X-6308874Y+3463116D01*
X-6267380Y+3463116D01*
X-6253548Y+3475410D01*
X-6253548Y+3487705D01*
X-6267380Y+3500000D01*
X-6225885Y+3463116D02*
X-6225885Y+3536883D01*
X-6156729Y+3536883D01*
X-6142897Y+3524589D01*
X-6142897Y+3512294D01*
X-6156729Y+3500000D01*
X-6225885Y+3500000D01*
X-6115234Y+3512294D02*
X-6087572Y+3536883D01*
X-6059909Y+3536883D01*
X-6032246Y+3512294D01*
X-6032246Y+3487705D01*
X-6059909Y+3463116D01*
X-6087572Y+3463116D01*
X-6115234Y+3487705D01*
X-6115234Y+3512294D01*
X-6004583Y+3536883D02*
X-6004583Y+3463116D01*
X-5963089Y+3500000D01*
X-5921595Y+3463116D01*
X-5921595Y+3536883D01*
X-5810944Y+3463116D02*
X-5893932Y+3463116D01*
X-5893932Y+3536883D01*
X-5810944Y+3536883D01*
X-5893932Y+3500000D02*
X-5838607Y+3500000D01*
X-5783281Y+3463116D02*
X-5783281Y+3536883D01*
X-5714125Y+3536883D01*
X-5700293Y+3524589D01*
X-5700293Y+3512294D01*
X-5714125Y+3500000D01*
X-5783281Y+3500000D01*
X-5714125Y+3500000D02*
X-5700293Y+3487705D01*
X-5700293Y+3463116D01*
D18*
X-3522160Y-2268160D02*
X-2485840Y-2268160D01*
X-2485840Y-1231840D01*
X-3522160Y-1231840D01*
X-3522160Y-2268160D01*
D26*
X-3258000Y-1750000D02*
X-3258000Y-1750000D01*
D72*
X-2799639Y-2188910D02*
X-2883241Y-2188910D01*
X-2883241Y-2110534D01*
X-2869307Y-2094858D01*
X-2855374Y-2094858D01*
X-2841440Y-2110534D01*
X-2841440Y-2188910D01*
X-2855374Y-2063507D02*
X-2883241Y-2032157D01*
X-2883241Y-2000806D01*
X-2855374Y-1969455D01*
X-2827506Y-1969455D01*
X-2799639Y-2000806D01*
X-2799639Y-2032157D01*
X-2827506Y-2063507D01*
X-2855374Y-2063507D01*
X-2883241Y-1938104D02*
X-2799639Y-1938104D01*
X-2841440Y-1891078D01*
X-2799639Y-1844052D01*
X-2883241Y-1844052D01*
X-2799639Y-1718649D02*
X-2799639Y-1812701D01*
X-2883241Y-1812701D01*
X-2883241Y-1718649D01*
X-2841440Y-1812701D02*
X-2841440Y-1750000D01*
X-2799639Y-1687298D02*
X-2883241Y-1687298D01*
X-2883241Y-1608922D01*
X-2869307Y-1593246D01*
X-2855374Y-1593246D01*
X-2841440Y-1608922D01*
X-2841440Y-1687298D01*
X-2841440Y-1608922D02*
X-2827506Y-1593246D01*
X-2799639Y-1593246D01*
X-2799639Y-1436492D02*
X-2883241Y-1436492D01*
X-2799639Y-1342440D01*
X-2883241Y-1342440D01*
D18*
X-7088900Y+6411100D02*
X-6911100Y+6411100D01*
X-6911100Y+7604900D01*
X-7088900Y+7604900D01*
X-7088900Y+6411100D01*
D73*
X-7000000Y+6500000D02*
X-7000000Y+6500000D01*
D30*
X-6966929Y+6971018D02*
X-7033070Y+6971018D01*
X-7033070Y+7033025D01*
X-7022047Y+7045427D01*
X-7011023Y+7045427D01*
X-7000000Y+7033025D01*
X-7000000Y+6971018D01*
X-7000000Y+7033025D02*
X-6988976Y+7045427D01*
X-6966929Y+7045427D01*
X-7011023Y+7095033D02*
X-7033070Y+7119836D01*
X-6966929Y+7119836D01*
D18*
X-6387160Y+6612840D02*
X-6112840Y+6612840D01*
X-6112840Y+7649160D01*
X-6387160Y+7649160D01*
X-6387160Y+6612840D01*
D31*
X-6250000Y+7512000D02*
X-6250000Y+7512000D01*
D32*
X-6208090Y+6664910D02*
X-6291910Y+6664910D01*
X-6291910Y+6759207D02*
X-6208090Y+6759207D01*
X-6250000Y+6664910D02*
X-6250000Y+6759207D01*
X-6222060Y+6884937D02*
X-6208090Y+6869221D01*
X-6208090Y+6822072D01*
X-6236030Y+6790640D01*
X-6263970Y+6790640D01*
X-6291910Y+6822072D01*
X-6291910Y+6869221D01*
X-6277940Y+6884937D01*
X-6222060Y+6916370D02*
X-6208090Y+6932086D01*
X-6208090Y+6994951D01*
X-6222060Y+7010667D01*
X-6236030Y+7010667D01*
X-6250000Y+6994951D01*
X-6250000Y+6932086D01*
X-6263970Y+6916370D01*
X-6277940Y+6916370D01*
X-6291910Y+6932086D01*
X-6291910Y+6994951D01*
X-6277940Y+7010667D01*
X-6208090Y+7042100D02*
X-6291910Y+7042100D01*
X-6291910Y+7120681D01*
X-6277940Y+7136397D01*
X-6263970Y+7136397D01*
X-6250000Y+7120681D01*
X-6250000Y+7042100D01*
X-6250000Y+7120681D02*
X-6236030Y+7136397D01*
X-6208090Y+7136397D01*
X-6263970Y+7167830D02*
X-6291910Y+7199262D01*
X-6291910Y+7230695D01*
X-6263970Y+7262127D01*
X-6236030Y+7262127D01*
X-6208090Y+7230695D01*
X-6208090Y+7199262D01*
X-6236030Y+7167830D01*
X-6263970Y+7167830D01*
X-6236030Y+7387857D02*
X-6236030Y+7293560D01*
X-6291910Y+7356425D01*
X-6208090Y+7356425D01*
D18*
X-3200660Y+2362840D02*
X-2799340Y+2362840D01*
X-2799340Y+4415160D01*
X-3200660Y+4415160D01*
X-3200660Y+2362840D01*
D23*
X-3000000Y+4278000D02*
X-3000000Y+4278000D01*
D33*
X-3061468Y+2465207D02*
X-2938532Y+2465207D01*
X-3061468Y+2603509D02*
X-3000000Y+2534358D01*
X-2938532Y+2603509D01*
X-3000000Y+2465207D02*
X-3000000Y+2534358D01*
X-2938532Y+2649610D02*
X-3020489Y+2649610D01*
X-3061468Y+2695710D01*
X-3061468Y+2741811D01*
X-3020489Y+2787912D01*
X-2938532Y+2787912D01*
X-2979511Y+2649610D02*
X-2979511Y+2787912D01*
X-2938532Y+2834013D02*
X-3061468Y+2834013D01*
X-3061468Y+2949264D01*
X-3040979Y+2972315D01*
X-3020489Y+2972315D01*
X-3000000Y+2949264D01*
X-2979511Y+2972315D01*
X-2959021Y+2972315D01*
X-2938532Y+2949264D01*
X-2938532Y+2834013D01*
X-3000000Y+2834013D02*
X-3000000Y+2949264D01*
X-3061468Y+3018416D02*
X-2938532Y+3018416D01*
X-2938532Y+3156718D01*
X-3020489Y+3202819D02*
X-3061468Y+3248919D01*
X-3061468Y+3295020D01*
X-3020489Y+3341121D01*
X-2979511Y+3341121D01*
X-2938532Y+3295020D01*
X-2938532Y+3248919D01*
X-2979511Y+3202819D01*
X-3020489Y+3202819D01*
X-3020489Y+3571625D02*
X-3061468Y+3617725D01*
X-3061468Y+3663826D01*
X-3020489Y+3709927D01*
X-2979511Y+3709927D01*
X-2938532Y+3663826D01*
X-2938532Y+3617725D01*
X-2979511Y+3571625D01*
X-3020489Y+3571625D01*
X-3061468Y+3756028D02*
X-2959021Y+3756028D01*
X-2938532Y+3779078D01*
X-2938532Y+3871279D01*
X-2959021Y+3894330D01*
X-3061468Y+3894330D01*
X-3061468Y+3940431D02*
X-3061468Y+4078733D01*
X-3061468Y+4009582D02*
X-2938532Y+4009582D01*
D18*
X-6764160Y+4481840D02*
X-5727840Y+4481840D01*
X-5727840Y+5518160D01*
X-6764160Y+5518160D01*
X-6764160Y+4481840D01*
D26*
X-6500000Y+5000000D02*
X-6500000Y+5000000D01*
D34*
X-6060556Y+4553775D02*
X-6106323Y+4553775D01*
X-6106323Y+4605262D02*
X-6060556Y+4605262D01*
X-6083440Y+4553775D02*
X-6083440Y+4605262D01*
X-6068184Y+4673912D02*
X-6060556Y+4665331D01*
X-6060556Y+4639587D01*
X-6075812Y+4622425D01*
X-6091067Y+4622425D01*
X-6106323Y+4639587D01*
X-6106323Y+4665331D01*
X-6098695Y+4673912D01*
X-6068184Y+4691075D02*
X-6060556Y+4699656D01*
X-6060556Y+4733981D01*
X-6068184Y+4742562D01*
X-6075812Y+4742562D01*
X-6083440Y+4733981D01*
X-6083440Y+4699656D01*
X-6091067Y+4691075D01*
X-6098695Y+4691075D01*
X-6106323Y+4699656D01*
X-6106323Y+4733981D01*
X-6098695Y+4742562D01*
X-6060556Y+4759725D02*
X-6106323Y+4759725D01*
X-6106323Y+4802631D01*
X-6098695Y+4811212D01*
X-6091067Y+4811212D01*
X-6083440Y+4802631D01*
X-6083440Y+4759725D01*
X-6083440Y+4802631D02*
X-6075812Y+4811212D01*
X-6060556Y+4811212D01*
X-6068184Y+4828375D02*
X-6098695Y+4828375D01*
X-6106323Y+4836956D01*
X-6106323Y+4871281D01*
X-6098695Y+4879862D01*
X-6068184Y+4879862D01*
X-6060556Y+4871281D01*
X-6060556Y+4836956D01*
X-6068184Y+4828375D01*
X-6060556Y+4828375D02*
X-6106323Y+4879862D01*
X-6075812Y+4948512D02*
X-6075812Y+4897025D01*
X-6106323Y+4931350D01*
X-6060556Y+4931350D01*
X-6091067Y+5034325D02*
X-6106323Y+5051487D01*
X-6106323Y+5068650D01*
X-6091067Y+5085812D01*
X-6075812Y+5085812D01*
X-6060556Y+5068650D01*
X-6060556Y+5051487D01*
X-6075812Y+5034325D01*
X-6091067Y+5034325D01*
X-6060556Y+5102975D02*
X-6106323Y+5102975D01*
X-6060556Y+5154462D01*
X-6106323Y+5154462D01*
X-6091067Y+5240275D02*
X-6106323Y+5257437D01*
X-6106323Y+5274600D01*
X-6091067Y+5291762D01*
X-6075812Y+5291762D01*
X-6060556Y+5274600D01*
X-6060556Y+5257437D01*
X-6075812Y+5240275D01*
X-6091067Y+5240275D01*
X-6060556Y+5308925D02*
X-6106323Y+5308925D01*
X-6106323Y+5360412D01*
X-6083440Y+5308925D02*
X-6083440Y+5343250D01*
X-6060556Y+5377575D02*
X-6106323Y+5377575D01*
X-6106323Y+5429062D01*
X-6083440Y+5377575D02*
X-6083440Y+5411900D01*
M02*
