G04 PROTEUS GERBER X2 FILE*
%TF.GenerationSoftware,Labcenter,Proteus,8.10-SP3-Build29560*%
%TF.CreationDate,2022-04-02T15:07:06+00:00*%
%TF.FileFunction,Copper,L1,Top*%
%TF.FilePolarity,Positive*%
%TF.Part,Single*%
%TF.SameCoordinates,{4c8af1e2-d522-4a99-b856-79d3214d47b0}*%
%FSLAX45Y45*%
%MOMM*%
G01*
%TA.AperFunction,Conductor*%
%ADD10C,1.016000*%
%ADD11C,1.524000*%
%AMDIL002*
4,1,8,
-1.270000,0.457200,-0.965200,0.762000,0.965200,0.762000,1.270000,0.457200,1.270000,-0.457200,
0.965200,-0.762000,-0.965200,-0.762000,-1.270000,-0.457200,-1.270000,0.457200,
0*%
%TA.AperFunction,ComponentPad*%
%ADD12DIL002*%
%TA.AperFunction,ComponentPad*%
%ADD13C,1.778000*%
%TA.AperFunction,ComponentPad*%
%ADD14R,2.032000X2.032000*%
%TA.AperFunction,ComponentPad*%
%ADD15C,3.048000*%
%TA.AperFunction,ComponentPad*%
%ADD16C,1.397000*%
%TA.AperFunction,Profile*%
%ADD17C,0.203200*%
%TD.AperFunction*%
D10*
X-9750000Y+6250000D02*
X-9254000Y+6746000D01*
X-8771000Y+6746000D01*
D11*
X-8021000Y+7246000D02*
X-8022807Y+7244193D01*
X-8442518Y+7244193D01*
X-9250000Y+9516000D02*
X-9215520Y+9516000D01*
X-8500000Y+9500000D01*
X-8442518Y+7244193D01*
X-11774000Y+6250000D02*
X-11750000Y+5500000D01*
X-10246977Y+5162828D01*
X-10248855Y+4751145D01*
X-10250000Y+4500000D01*
X-8442518Y+7244193D02*
X-8442518Y+6557482D01*
X-10248855Y+4751145D01*
X-10250000Y+4750000D01*
D10*
X-11774000Y+6758000D02*
X-10250000Y+6758000D01*
D12*
X-10250000Y+6250000D03*
X-10250000Y+6504000D03*
X-10250000Y+6758000D03*
X-10250000Y+7012000D03*
X-10250000Y+7266000D03*
X-10250000Y+7520000D03*
X-10250000Y+7774000D03*
X-10250000Y+8028000D03*
X-10250000Y+8282000D03*
X-10250000Y+8536000D03*
X-10250000Y+8790000D03*
X-10250000Y+9044000D03*
X-10250000Y+9298000D03*
X-10250000Y+9552000D03*
X-10250000Y+9806000D03*
X-11774000Y+9806000D03*
X-11774000Y+9552000D03*
X-11774000Y+9298000D03*
X-11774000Y+9044000D03*
X-11774000Y+8790000D03*
X-11774000Y+8536000D03*
X-11774000Y+8282000D03*
X-11774000Y+8028000D03*
X-11774000Y+7774000D03*
X-11774000Y+7520000D03*
X-11774000Y+7266000D03*
X-11774000Y+7012000D03*
X-11774000Y+6758000D03*
X-11774000Y+6504000D03*
X-11774000Y+6250000D03*
X-9250000Y+8500000D03*
X-9250000Y+8754000D03*
X-9250000Y+9008000D03*
X-9250000Y+9262000D03*
X-9250000Y+9516000D03*
X-9250000Y+9770000D03*
D13*
X-9750000Y+6250000D03*
X-9750000Y+7266000D03*
D14*
X-8771000Y+6746000D03*
X-8771000Y+7000000D03*
X-8771000Y+7254000D03*
X-8771000Y+7508000D03*
D15*
X-6250000Y+4500000D03*
X-5742000Y+4500000D03*
X-11500000Y+4500000D03*
X-10992000Y+4500000D03*
X-8000000Y+4500000D03*
X-8508000Y+4500000D03*
X-9234000Y+4500000D03*
X-9742000Y+4500000D03*
X-10250000Y+4500000D03*
D14*
X-8021000Y+7246000D03*
X-8021000Y+7500000D03*
D16*
X-6500000Y+6000000D03*
X-6754000Y+6127000D03*
X-6500000Y+6254000D03*
X-6754000Y+6381000D03*
X-6500000Y+6508000D03*
X-6754000Y+6635000D03*
X-6500000Y+6762000D03*
X-6754000Y+6889000D03*
D17*
X-12750000Y+3500000D02*
X-5250000Y+3500000D01*
X-5250000Y+11000000D01*
X-12750000Y+11000000D01*
X-12750000Y+3500000D01*
M02*
