G04 PROTEUS GERBER X2 FILE*
%TF.GenerationSoftware,Labcenter,Proteus,8.10-SP3-Build29560*%
%TF.CreationDate,2022-04-02T15:07:06+00:00*%
%TF.FileFunction,AssemblyDrawing,Top*%
%TF.FilePolarity,Positive*%
%TF.Part,Single*%
%TF.SameCoordinates,{4c8af1e2-d522-4a99-b856-79d3214d47b0}*%
%FSLAX45Y45*%
%MOMM*%
G01*
%TA.AperFunction,Profile*%
%ADD17C,0.203200*%
%TA.AperFunction,Material*%
%ADD19C,0.203200*%
%ADD23C,1.016000*%
%ADD24C,0.801370*%
%ADD25C,0.095430*%
%ADD26C,0.711200*%
%ADD27C,0.110230*%
%ADD28C,0.812800*%
%ADD29C,0.139700*%
%ADD72C,1.219200*%
%ADD73C,0.122420*%
%ADD30C,0.314280*%
%ADD31C,0.210740*%
%ADD32C,0.036680*%
%ADD33C,0.558800*%
%ADD34C,0.185490*%
%TD.AperFunction*%
D17*
X-12750000Y+3500000D02*
X-5250000Y+3500000D01*
X-5250000Y+11000000D01*
X-12750000Y+11000000D01*
X-12750000Y+3500000D01*
D19*
X-11901000Y+6112840D02*
X-10123000Y+6112840D01*
X-10123000Y+9943160D01*
X-11901000Y+9943160D01*
X-11901000Y+6112840D01*
D23*
X-10250000Y+6250000D02*
X-10250000Y+6250000D01*
D24*
X-10851726Y+6679514D02*
X-10771589Y+6769668D01*
X-10771589Y+7130284D01*
X-10851726Y+7220438D01*
X-10931863Y+7220438D01*
X-11012000Y+7130284D01*
X-11012000Y+6769668D01*
X-11092137Y+6679514D01*
X-11172274Y+6679514D01*
X-11252411Y+6769668D01*
X-11252411Y+7130284D01*
X-11172274Y+7220438D01*
X-11252411Y+7490901D02*
X-11252411Y+7851517D01*
X-11252411Y+7671209D02*
X-10771589Y+7671209D01*
X-10771589Y+7490901D02*
X-10771589Y+7851517D01*
X-10771589Y+8121980D02*
X-11252411Y+8121980D01*
X-11012000Y+8392442D01*
X-11252411Y+8662904D01*
X-10771589Y+8662904D01*
X-11092137Y+9023521D02*
X-11252411Y+9203829D01*
X-10771589Y+9203829D01*
D19*
X-9450660Y+8362840D02*
X-9049340Y+8362840D01*
X-9049340Y+9907160D01*
X-9450660Y+9907160D01*
X-9450660Y+8362840D01*
D23*
X-9250000Y+8500000D02*
X-9250000Y+8500000D01*
D25*
X-9230914Y+8627771D02*
X-9221371Y+8638506D01*
X-9221371Y+8681450D01*
X-9230914Y+8692186D01*
X-9240457Y+8692186D01*
X-9250000Y+8681450D01*
X-9250000Y+8638506D01*
X-9259543Y+8627771D01*
X-9269086Y+8627771D01*
X-9278629Y+8638506D01*
X-9278629Y+8681450D01*
X-9269086Y+8692186D01*
X-9221371Y+8713658D02*
X-9278629Y+8713658D01*
X-9278629Y+8756601D01*
X-9259543Y+8778073D01*
X-9240457Y+8778073D01*
X-9221371Y+8756601D01*
X-9221371Y+8713658D01*
X-9230914Y+8949847D02*
X-9221371Y+8939111D01*
X-9221371Y+8906903D01*
X-9240457Y+8885432D01*
X-9259543Y+8885432D01*
X-9278629Y+8906903D01*
X-9278629Y+8939111D01*
X-9269086Y+8949847D01*
X-9221371Y+8971319D02*
X-9259543Y+8971319D01*
X-9278629Y+8992790D01*
X-9278629Y+9014262D01*
X-9259543Y+9035734D01*
X-9221371Y+9035734D01*
X-9240457Y+8971319D02*
X-9240457Y+9035734D01*
X-9221371Y+9057206D02*
X-9278629Y+9057206D01*
X-9278629Y+9110885D01*
X-9269086Y+9121621D01*
X-9259543Y+9121621D01*
X-9250000Y+9110885D01*
X-9250000Y+9057206D01*
X-9250000Y+9110885D02*
X-9240457Y+9121621D01*
X-9221371Y+9121621D01*
X-9221371Y+9143093D02*
X-9278629Y+9143093D01*
X-9278629Y+9186036D01*
X-9259543Y+9207508D01*
X-9240457Y+9207508D01*
X-9221371Y+9186036D01*
X-9221371Y+9143093D01*
X-9221371Y+9314867D02*
X-9278629Y+9314867D01*
X-9278629Y+9368546D01*
X-9269086Y+9379282D01*
X-9259543Y+9379282D01*
X-9250000Y+9368546D01*
X-9250000Y+9314867D01*
X-9250000Y+9368546D02*
X-9240457Y+9379282D01*
X-9221371Y+9379282D01*
X-9221371Y+9465169D02*
X-9221371Y+9400754D01*
X-9278629Y+9400754D01*
X-9278629Y+9465169D01*
X-9250000Y+9400754D02*
X-9250000Y+9443697D01*
X-9221371Y+9486641D02*
X-9259543Y+9486641D01*
X-9278629Y+9508112D01*
X-9278629Y+9529584D01*
X-9259543Y+9551056D01*
X-9221371Y+9551056D01*
X-9240457Y+9486641D02*
X-9240457Y+9551056D01*
X-9221371Y+9572528D02*
X-9278629Y+9572528D01*
X-9278629Y+9615471D01*
X-9259543Y+9636943D01*
X-9240457Y+9636943D01*
X-9221371Y+9615471D01*
X-9221371Y+9572528D01*
X-9221371Y+9722830D02*
X-9221371Y+9658415D01*
X-9278629Y+9658415D01*
X-9278629Y+9722830D01*
X-9250000Y+9658415D02*
X-9250000Y+9701358D01*
X-9221371Y+9744302D02*
X-9278629Y+9744302D01*
X-9278629Y+9797981D01*
X-9269086Y+9808717D01*
X-9259543Y+9808717D01*
X-9250000Y+9797981D01*
X-9250000Y+9744302D01*
X-9250000Y+9797981D02*
X-9240457Y+9808717D01*
X-9221371Y+9808717D01*
D19*
X-9838900Y+6161100D02*
X-9661100Y+6161100D01*
X-9661100Y+7354900D01*
X-9838900Y+7354900D01*
X-9838900Y+6161100D01*
D26*
X-9750000Y+6250000D02*
X-9750000Y+6250000D01*
D27*
X-9716929Y+6721018D02*
X-9783070Y+6721018D01*
X-9783070Y+6783025D01*
X-9772047Y+6795427D01*
X-9761023Y+6795427D01*
X-9750000Y+6783025D01*
X-9750000Y+6721018D01*
X-9750000Y+6783025D02*
X-9738976Y+6795427D01*
X-9716929Y+6795427D01*
X-9761023Y+6845033D02*
X-9783070Y+6869836D01*
X-9716929Y+6869836D01*
D19*
X-8908160Y+6608840D02*
X-8633840Y+6608840D01*
X-8633840Y+7645160D01*
X-8908160Y+7645160D01*
X-8908160Y+6608840D01*
D28*
X-8771000Y+6746000D02*
X-8771000Y+6746000D01*
D29*
X-8729090Y+6838710D02*
X-8812910Y+6838710D01*
X-8812910Y+6933007D02*
X-8729090Y+6933007D01*
X-8771000Y+6838710D02*
X-8771000Y+6933007D01*
X-8743060Y+7058737D02*
X-8729090Y+7043021D01*
X-8729090Y+6995872D01*
X-8757030Y+6964440D01*
X-8784970Y+6964440D01*
X-8812910Y+6995872D01*
X-8812910Y+7043021D01*
X-8798940Y+7058737D01*
X-8743060Y+7090170D02*
X-8729090Y+7105886D01*
X-8729090Y+7168751D01*
X-8743060Y+7184467D01*
X-8757030Y+7184467D01*
X-8771000Y+7168751D01*
X-8771000Y+7105886D01*
X-8784970Y+7090170D01*
X-8798940Y+7090170D01*
X-8812910Y+7105886D01*
X-8812910Y+7168751D01*
X-8798940Y+7184467D01*
X-8729090Y+7215900D02*
X-8812910Y+7215900D01*
X-8812910Y+7294481D01*
X-8798940Y+7310197D01*
X-8784970Y+7310197D01*
X-8771000Y+7294481D01*
X-8771000Y+7215900D01*
X-8771000Y+7294481D02*
X-8757030Y+7310197D01*
X-8729090Y+7310197D01*
X-8784970Y+7341630D02*
X-8812910Y+7373062D01*
X-8812910Y+7404495D01*
X-8784970Y+7435927D01*
X-8757030Y+7435927D01*
X-8729090Y+7404495D01*
X-8729090Y+7373062D01*
X-8757030Y+7341630D01*
X-8784970Y+7341630D01*
X-8757030Y+7561657D02*
X-8757030Y+7467360D01*
X-8812910Y+7530225D01*
X-8729090Y+7530225D01*
D19*
X-6514160Y+3981840D02*
X-5477840Y+3981840D01*
X-5477840Y+5018160D01*
X-6514160Y+5018160D01*
X-6514160Y+3981840D01*
D72*
X-6250000Y+4500000D02*
X-6250000Y+4500000D01*
D73*
X-5796711Y+4059260D02*
X-5870168Y+4059260D01*
X-5870168Y+4128125D01*
X-5857925Y+4141898D01*
X-5845682Y+4141898D01*
X-5833440Y+4128125D01*
X-5833440Y+4059260D01*
X-5845682Y+4169445D02*
X-5870168Y+4196991D01*
X-5870168Y+4224537D01*
X-5845682Y+4252083D01*
X-5821197Y+4252083D01*
X-5796711Y+4224537D01*
X-5796711Y+4196991D01*
X-5821197Y+4169445D01*
X-5845682Y+4169445D01*
X-5870168Y+4279630D02*
X-5796711Y+4279630D01*
X-5833440Y+4320949D01*
X-5796711Y+4362268D01*
X-5870168Y+4362268D01*
X-5796711Y+4472453D02*
X-5796711Y+4389815D01*
X-5870168Y+4389815D01*
X-5870168Y+4472453D01*
X-5833440Y+4389815D02*
X-5833440Y+4444907D01*
X-5796711Y+4500000D02*
X-5870168Y+4500000D01*
X-5870168Y+4568865D01*
X-5857925Y+4582638D01*
X-5845682Y+4582638D01*
X-5833440Y+4568865D01*
X-5833440Y+4500000D01*
X-5833440Y+4568865D02*
X-5821197Y+4582638D01*
X-5796711Y+4582638D01*
X-5870168Y+4734143D02*
X-5870168Y+4789235D01*
X-5870168Y+4761689D02*
X-5796711Y+4761689D01*
X-5796711Y+4734143D02*
X-5796711Y+4789235D01*
X-5796711Y+4830555D02*
X-5870168Y+4830555D01*
X-5796711Y+4913193D01*
X-5870168Y+4913193D01*
D19*
X-11764160Y+3981840D02*
X-10727840Y+3981840D01*
X-10727840Y+5018160D01*
X-11764160Y+5018160D01*
X-11764160Y+3981840D01*
D72*
X-11500000Y+4500000D02*
X-11500000Y+4500000D01*
D30*
X-10989155Y+4075721D02*
X-11177724Y+4075721D01*
X-11177724Y+4252504D01*
X-11146296Y+4287860D01*
X-11114868Y+4287860D01*
X-11083440Y+4252504D01*
X-11083440Y+4075721D01*
X-11177724Y+4358574D02*
X-10989155Y+4358574D01*
X-11083440Y+4464643D01*
X-10989155Y+4570713D01*
X-11177724Y+4570713D01*
X-10989155Y+4641427D02*
X-11177724Y+4641427D01*
X-11083440Y+4747496D01*
X-11177724Y+4853566D01*
X-10989155Y+4853566D01*
D19*
X-8772160Y+3981840D02*
X-7735840Y+3981840D01*
X-7735840Y+5018160D01*
X-8772160Y+5018160D01*
X-8772160Y+3981840D01*
D72*
X-8000000Y+4500000D02*
X-8000000Y+4500000D01*
D30*
X-8447988Y+4075721D02*
X-8510844Y+4146434D01*
X-8510844Y+4217147D01*
X-8447988Y+4287860D01*
X-8385131Y+4287860D01*
X-8322275Y+4217147D01*
X-8322275Y+4146434D01*
X-8385131Y+4075721D01*
X-8447988Y+4075721D01*
X-8510844Y+4358574D02*
X-8353703Y+4358574D01*
X-8322275Y+4393930D01*
X-8322275Y+4535357D01*
X-8353703Y+4570713D01*
X-8510844Y+4570713D01*
X-8510844Y+4641427D02*
X-8510844Y+4853566D01*
X-8510844Y+4747496D02*
X-8322275Y+4747496D01*
D19*
X-10514160Y+3981840D02*
X-8969840Y+3981840D01*
X-8969840Y+5018160D01*
X-10514160Y+5018160D01*
X-10514160Y+3981840D01*
D72*
X-9234000Y+4500000D02*
X-9234000Y+4500000D01*
D31*
X-10378740Y+4436776D02*
X-10378740Y+4563224D01*
X-10260195Y+4563224D01*
X-10236486Y+4542149D01*
X-10236486Y+4521075D01*
X-10260195Y+4500000D01*
X-10378740Y+4500000D01*
X-10189068Y+4521075D02*
X-10141650Y+4563224D01*
X-10094232Y+4563224D01*
X-10046814Y+4521075D01*
X-10046814Y+4478925D01*
X-10094232Y+4436776D01*
X-10141650Y+4436776D01*
X-10189068Y+4478925D01*
X-10189068Y+4521075D01*
X-9999396Y+4563224D02*
X-9999396Y+4436776D01*
X-9928269Y+4500000D01*
X-9857142Y+4436776D01*
X-9857142Y+4563224D01*
X-9667470Y+4436776D02*
X-9809724Y+4436776D01*
X-9809724Y+4563224D01*
X-9667470Y+4563224D01*
X-9809724Y+4500000D02*
X-9714888Y+4500000D01*
X-9620052Y+4436776D02*
X-9620052Y+4563224D01*
X-9501507Y+4563224D01*
X-9477798Y+4542149D01*
X-9477798Y+4521075D01*
X-9501507Y+4500000D01*
X-9620052Y+4500000D01*
X-9501507Y+4500000D02*
X-9477798Y+4478925D01*
X-9477798Y+4436776D01*
D19*
X-8158160Y+7108840D02*
X-7883840Y+7108840D01*
X-7883840Y+7637160D01*
X-8158160Y+7637160D01*
X-8158160Y+7108840D01*
D28*
X-8021000Y+7246000D02*
X-8021000Y+7246000D01*
D32*
X-8009993Y+7313315D02*
X-8032006Y+7313315D01*
X-8032006Y+7338079D02*
X-8009993Y+7338079D01*
X-8021000Y+7313315D02*
X-8021000Y+7338079D01*
X-8013662Y+7371098D02*
X-8009993Y+7366970D01*
X-8009993Y+7354588D01*
X-8017331Y+7346334D01*
X-8024668Y+7346334D01*
X-8032006Y+7354588D01*
X-8032006Y+7366970D01*
X-8028337Y+7371098D01*
X-8024668Y+7412372D02*
X-8032006Y+7420626D01*
X-8032006Y+7428881D01*
X-8024668Y+7437136D01*
X-8017331Y+7437136D01*
X-8009993Y+7428881D01*
X-8009993Y+7420626D01*
X-8017331Y+7412372D01*
X-8024668Y+7412372D01*
X-8009993Y+7445391D02*
X-8032006Y+7445391D01*
X-8009993Y+7470155D01*
X-8032006Y+7470155D01*
X-8024668Y+7511429D02*
X-8032006Y+7519683D01*
X-8032006Y+7527938D01*
X-8024668Y+7536193D01*
X-8017331Y+7536193D01*
X-8009993Y+7527938D01*
X-8009993Y+7519683D01*
X-8017331Y+7511429D01*
X-8024668Y+7511429D01*
X-8009993Y+7544448D02*
X-8032006Y+7544448D01*
X-8032006Y+7569212D01*
X-8021000Y+7544448D02*
X-8021000Y+7560957D01*
X-8009993Y+7577467D02*
X-8032006Y+7577467D01*
X-8032006Y+7602231D01*
X-8021000Y+7577467D02*
X-8021000Y+7593976D01*
D19*
X-6893700Y+5527560D02*
X-5207140Y+5527560D01*
X-5207140Y+7351280D01*
X-6893700Y+7351280D01*
X-6893700Y+5527560D01*
D33*
X-6500000Y+6000000D02*
X-6500000Y+6000000D01*
D34*
X-5895249Y+5688159D02*
X-5783951Y+5688159D01*
X-5895249Y+5813369D02*
X-5839600Y+5750764D01*
X-5783951Y+5813369D01*
X-5839600Y+5688159D02*
X-5839600Y+5750764D01*
X-5783951Y+5855106D02*
X-5858150Y+5855106D01*
X-5895249Y+5896842D01*
X-5895249Y+5938579D01*
X-5858150Y+5980316D01*
X-5783951Y+5980316D01*
X-5821050Y+5855106D02*
X-5821050Y+5980316D01*
X-5783951Y+6022053D02*
X-5895249Y+6022053D01*
X-5895249Y+6126394D01*
X-5876699Y+6147263D01*
X-5858150Y+6147263D01*
X-5839600Y+6126394D01*
X-5821050Y+6147263D01*
X-5802501Y+6147263D01*
X-5783951Y+6126394D01*
X-5783951Y+6022053D01*
X-5839600Y+6022053D02*
X-5839600Y+6126394D01*
X-5895249Y+6189000D02*
X-5783951Y+6189000D01*
X-5783951Y+6314210D01*
X-5858150Y+6355947D02*
X-5895249Y+6397683D01*
X-5895249Y+6439420D01*
X-5858150Y+6481157D01*
X-5821050Y+6481157D01*
X-5783951Y+6439420D01*
X-5783951Y+6397683D01*
X-5821050Y+6355947D01*
X-5858150Y+6355947D01*
X-5858150Y+6689841D02*
X-5895249Y+6731577D01*
X-5895249Y+6773314D01*
X-5858150Y+6815051D01*
X-5821050Y+6815051D01*
X-5783951Y+6773314D01*
X-5783951Y+6731577D01*
X-5821050Y+6689841D01*
X-5858150Y+6689841D01*
X-5895249Y+6856788D02*
X-5802501Y+6856788D01*
X-5783951Y+6877656D01*
X-5783951Y+6961129D01*
X-5802501Y+6981998D01*
X-5895249Y+6981998D01*
X-5895249Y+7023735D02*
X-5895249Y+7148945D01*
X-5895249Y+7086340D02*
X-5783951Y+7086340D01*
M02*
